<svg width="173" height="148" viewBox="0 0 173 148" fill="none" xmlns="http://www.w3.org/2000/svg">
<g clip-path="url(#clip0_35_9379)">
<path d="M108.143 139.277C130.04 127.703 147.255 110.007 157.256 89.368C166.672 69.9414 176.984 44.2084 171.446 33.9644C162.052 16.5727 18.5392 -11.0887 2.52797 4.69421C-13.4833 20.4771 50.7337 146.208 77.8838 147.941C87.1971 148.533 97.992 144.643 108.143 139.277Z" fill="#34BDA7"/>
<path opacity="0.7" d="M108.143 139.277C130.04 127.703 147.255 110.007 157.256 89.368C166.672 69.9414 176.984 44.2084 171.446 33.9644C162.052 16.5727 18.5392 -11.0887 2.52797 4.69421C-13.4833 20.4771 50.7337 146.208 77.8838 147.941C87.1971 148.533 97.992 144.643 108.143 139.277Z" fill="white"/>
<path d="M138.951 145.991C152.111 145.991 162.78 143.61 162.78 140.672C162.78 137.735 152.111 135.354 138.951 135.354C125.791 135.354 115.123 137.735 115.123 140.672C115.123 143.61 125.791 145.991 138.951 145.991Z" fill="#263238"/>
<path d="M65.1098 145.991C78.2699 145.991 88.9383 143.61 88.9383 140.672C88.9383 137.735 78.2699 135.354 65.1098 135.354C51.9496 135.354 41.2812 137.735 41.2812 140.672C41.2812 143.61 51.9496 145.991 65.1098 145.991Z" fill="#263238"/>
<path d="M130.326 131.923C130.326 131.923 128.398 134.799 127.684 135.424C126.971 136.048 123.108 138.3 122.245 138.612C121.382 138.924 121.451 139.468 121.674 139.934C121.897 140.401 123.196 141.403 126.777 141.256C130.359 141.109 130.666 141.102 131.997 140.79C133.329 140.478 137.053 140.713 137.053 140.713C137.053 140.713 139.544 140.636 140.1 140.015C140.656 139.394 140.447 134.957 140.447 134.957L130.326 131.923Z" fill="white" stroke="#263238" stroke-linecap="round" stroke-linejoin="round"/>
<path d="M140.444 138.333C139.595 138.435 138.318 138.626 136.544 139.005C132.886 139.78 132.48 140.015 127.191 140.107C125.277 140.169 123.366 139.921 121.532 139.372C121.533 139.571 121.582 139.766 121.674 139.941C121.897 140.408 123.196 141.411 126.777 141.264C130.358 141.117 130.666 141.109 131.997 140.797C133.329 140.485 137.053 140.72 137.053 140.72C137.053 140.72 139.544 140.643 140.1 140.022C140.294 139.798 140.396 139.122 140.444 138.333Z" fill="white" stroke="#263238" stroke-linecap="round" stroke-linejoin="round"/>
<path d="M143.432 133.558C143.131 134.536 142.718 135.476 142.203 136.36C141.314 137.914 138.633 139.626 137.053 140.713C135.472 141.8 135.542 142.27 136.687 142.814C137.832 143.357 142.269 143.592 143.747 143.515C145.225 143.438 149.6 142.193 150.233 142.116C150.866 142.039 151.63 142.193 152.204 140.951C152.779 139.71 152.128 136.592 152.128 136.592C152.128 136.592 148.47 133.716 147.006 133.403C145.543 133.091 144.23 132.702 143.432 133.558Z" fill="white" stroke="#263238" stroke-linecap="round" stroke-linejoin="round"/>
<path d="M152.212 140.952C152.365 140.552 152.443 140.127 152.442 139.699C151.61 139.927 150.805 140.242 150.039 140.639C148.7 141.418 147.112 142.27 143.454 142.347C140.922 142.348 138.392 142.165 135.886 141.8C135.706 142.204 136.006 142.498 136.68 142.814C137.835 143.361 142.262 143.592 143.74 143.515C145.217 143.438 149.592 142.193 150.225 142.116C150.858 142.039 151.637 142.193 152.212 140.952Z" fill="white" stroke="#263238" stroke-linecap="round" stroke-linejoin="round"/>
<path d="M127.791 90.6277C127.791 90.6277 128.888 105.827 129.448 109.481C130.007 113.136 130.775 127.112 130.768 127.479C130.761 127.846 130.794 129.415 130.717 129.631C130.64 129.848 129.923 129.918 129.843 130.274C129.731 131.126 129.689 131.986 129.715 132.845C129.78 133.212 130.494 133.275 131.697 133.991C132.901 134.707 136.603 135.787 137.964 135.787C139.324 135.787 140.612 135.931 140.616 135.714C140.619 135.497 140.707 131.699 140.733 130.572C140.758 129.444 140.403 129.135 140.499 128.206C140.594 127.277 140.261 90.635 140.261 90.635L141.468 91.0023C141.468 91.0023 142.225 114.947 142.448 117.815C142.671 120.684 142.371 131.012 142.371 131.012C142.371 131.012 141.717 131.299 141.713 131.585C141.684 132.864 142.126 134.281 142.342 135.538C143.616 135.227 144.937 135.164 146.234 135.35C147.398 135.471 148.795 135.56 149.892 136.011C150.603 136.337 151.364 136.538 152.142 136.606C152.356 136.472 152.539 136.295 152.68 136.084C152.821 135.874 152.915 135.637 152.958 135.387C153.105 134.209 152.908 133.013 152.391 131.945C151.703 130.513 151.509 129.58 151.634 127.284C151.758 124.989 153.463 115.667 153.539 112.592C153.616 109.518 154.022 100.548 154.11 99.6853C154.198 98.8221 154.703 89.2907 154.703 89.2907L153.313 87.355L127.78 88.2843L127.791 90.6277Z" fill="#34BDA7" stroke="#263238" stroke-linecap="round" stroke-linejoin="round"/>
<path d="M133.267 92.152L140.294 97.2171H140.316C140.283 93.3016 140.261 90.635 140.261 90.635L141.468 91.0023C141.468 91.0023 141.548 93.5477 141.665 97.0775L149.761 91.8618L141.172 87.7848L135.055 88.0088L133.267 92.152Z" fill="#263238" stroke="#263238" stroke-linecap="round" stroke-linejoin="round"/>
<path d="M134.32 28.6714L124.374 33.0019C124.374 33.0019 117.574 48.4285 117.387 49.7802C117.2 51.1319 118.682 51.7489 119.849 52.377C121.016 53.0051 126.294 52.7737 126.294 52.7737L124.045 90.9252C124.045 90.9252 126.309 91.792 129.126 92.5817C131.942 93.3714 136.647 94.3154 136.647 94.3154L137.682 90.1392L138.607 94.5468C138.607 94.5468 146.249 94.3925 149.183 93.4449C152.116 92.4972 159.03 89.6653 159.03 89.6653L157.421 62.621L157 56.792L157.315 49.7802C157.315 49.7802 160.797 48.9942 160.815 48.0502C160.834 47.1063 158.792 32.8477 158.419 31.9808C158.046 31.114 154.684 30.0121 154.293 29.9313C153.902 29.8505 146.392 27.4887 146.392 27.4887C146.392 27.4887 137.824 26.9415 134.32 28.6714Z" fill="white" stroke="#263238" stroke-linecap="round" stroke-linejoin="round"/>
<path d="M136.255 26.6256C136.255 26.6256 134.909 26.9378 134.668 27.2537C134.426 27.5696 132.367 31.5878 132.367 31.5878L134.466 32.6897L132.217 34.7356L138.037 45.6848L149.073 34.4234L146.743 32.9285L148.835 31.0369C148.835 31.0369 147.807 27.5732 147.12 26.7064C146.703 26.1831 146.182 25.7527 145.591 25.4429L136.255 26.6256Z" fill="white" stroke="#263238" stroke-linecap="round" stroke-linejoin="round"/>
<path d="M135.483 25.9938L135.875 29.6191L138.377 40.9613L145.503 28.5943L146.143 24.5797L135.359 24.4989L135.483 25.9938Z" fill="white" stroke="#263238" stroke-linecap="round" stroke-linejoin="round"/>
<path d="M135.271 10.7141C135.271 10.7141 132.941 12.76 133.076 14.1778C133.223 15.281 133.489 16.3649 133.87 17.41L134.053 19.7718L134.617 19.6138L134.382 15.9114L137.177 13.6268L142.211 13.8656C142.211 13.8656 143.674 15.3605 144.219 15.7572C144.764 16.1539 146 17.017 146 17.017L146.403 20.0876L147.039 19.9297C147.039 19.9297 147.237 18.1189 147.321 17.803C147.405 17.4872 147.668 12.8408 147.61 11.8969C147.551 10.9529 144.383 8.2716 141.164 7.80145C137.945 7.33131 136.025 8.90335 135.377 9.68938C134.73 10.4754 135.271 10.7141 135.271 10.7141Z" fill="#263238" stroke="#263238" stroke-linecap="round" stroke-linejoin="round"/>
<path d="M137.594 12.5249C137.594 12.5249 134.382 15.2026 134.368 15.9114C134.353 16.6203 134.338 24.2602 134.734 24.9691C135.129 25.678 137.32 28.9102 138.41 29.5383C139.5 30.1664 140.605 30.328 141.556 29.6191C142.507 28.9102 145.58 25.6816 146.158 24.5797C146.736 23.4778 146.498 16.3853 146.498 16.3853C146.498 16.3853 146.882 16.8591 145.645 15.8343C144.863 15.1516 144.26 14.2863 143.89 13.3146C143.89 13.3146 138.907 13.6268 137.594 12.5249Z" fill="white" stroke="#263238" stroke-linecap="round" stroke-linejoin="round"/>
<path d="M146.483 16.3853C146.483 16.3853 146.483 16.422 146.483 16.4808C146.608 16.5285 146.483 16.3853 146.483 16.3853Z" fill="white" stroke="#263238" stroke-linecap="round" stroke-linejoin="round"/>
<path d="M138.395 29.5383C139.493 30.17 140.59 30.328 141.541 29.6191C142.492 28.9102 145.565 25.6816 146.143 24.5797C146.681 23.5513 146.509 17.3219 146.487 16.4808C146.297 16.3769 146.118 16.2538 145.953 16.1135L145.997 17.0354L145.847 23.7313L144.493 24.734C142.952 23.7457 141.16 23.2265 139.332 23.2391C136.405 23.3162 135.366 24.4989 135.366 24.4989L134.375 15.9114C134.375 16.6203 134.346 24.2602 134.741 24.9691C135.136 25.678 137.305 28.9102 138.395 29.5383Z" fill="#263238" stroke="#263238" stroke-linecap="round" stroke-linejoin="round"/>
<path d="M138.779 19.3788V23.397C138.9 23.5675 139.07 23.6967 139.266 23.767C139.463 23.8373 139.676 23.8453 139.877 23.79C140.056 23.7324 140.217 23.6295 140.345 23.4912C140.473 23.3529 140.564 23.1839 140.608 23.0003" fill="white"/>
<path d="M138.779 19.3788V23.397C138.9 23.5675 139.07 23.6967 139.266 23.767C139.463 23.8373 139.676 23.8453 139.877 23.79C140.056 23.7324 140.217 23.6295 140.345 23.4912C140.473 23.3529 140.564 23.1839 140.608 23.0003" stroke="#263238" stroke-linecap="round" stroke-linejoin="round"/>
<path d="M146.582 18.9858C146.582 18.9858 147.028 16.624 147.654 16.782C148.279 16.9399 148.488 18.2769 147.979 19.9297C147.471 21.5826 146.604 21.5862 146.604 21.5862L146.582 18.9858Z" fill="white" stroke="#263238" stroke-linecap="round" stroke-linejoin="round"/>
<path d="M134.616 18.9821C134.616 18.9821 134.276 16.6203 133.643 16.7783C133.01 16.9362 132.743 18.2732 133.179 19.9297C133.614 21.5862 134.481 21.5826 134.481 21.5826L134.616 18.9821Z" fill="white" stroke="#263238" stroke-linecap="round" stroke-linejoin="round"/>
<path d="M141.245 18.2769C141.245 18.2769 143.14 17.961 144.237 18.2769" stroke="#263238" stroke-linecap="round" stroke-linejoin="round"/>
<path d="M138.176 18.1189C138.176 18.1189 136.544 17.2521 135.663 17.803" stroke="#263238" stroke-linecap="round" stroke-linejoin="round"/>
<path d="M143.253 19.9297C143.253 20.3668 143.045 20.7194 142.803 20.7194C142.562 20.7194 142.379 20.3521 142.39 19.9297C142.401 19.5073 142.598 19.1437 142.84 19.1437C143.081 19.1437 143.264 19.4963 143.253 19.9297Z" fill="#263238"/>
<path d="M137.744 19.9297C137.744 20.3631 137.532 20.7157 137.294 20.7157C137.056 20.7157 136.866 20.3484 136.877 19.9297C136.888 19.511 137.089 19.14 137.327 19.14C137.565 19.14 137.751 19.4963 137.744 19.9297Z" fill="#263238"/>
<path d="M138.333 25.2078C138.901 25.4292 139.514 25.5091 140.119 25.4407C140.724 25.3722 141.304 25.1575 141.808 24.8148" stroke="white" stroke-linecap="round" stroke-linejoin="round"/>
<path d="M126.989 37.3361L127.827 44.8621L128.504 40.1312" stroke="#263238" stroke-linecap="round" stroke-linejoin="round"/>
<path d="M151.041 39.7309C150.786 40.2715 150.596 40.8413 150.478 41.4278C150.302 42.7868 151.473 48.1641 151.473 48.1641" stroke="#263238" stroke-linecap="round" stroke-linejoin="round"/>
<path d="M152.907 35.9954C152.907 35.9954 152.504 36.73 152.029 37.6703" stroke="#263238" stroke-linecap="round" stroke-linejoin="round"/>
<path d="M152.918 49.2329L156.382 46.6618" stroke="#263238" stroke-linecap="round" stroke-linejoin="round"/>
<path d="M156.539 49.2403L142.273 48.7371L134.207 53.7544L154.816 58.2759C154.816 58.2759 158.917 57.5596 159.937 56.4834C160.958 55.4072 161.401 52.8104 161.401 51.6094C161.401 50.4083 160.64 47.2348 160.64 47.2348" fill="white"/>
<path d="M156.539 49.2403L142.273 48.7371L134.207 53.7544L154.816 58.2759C154.816 58.2759 158.917 57.5596 159.937 56.4834C160.958 55.4072 161.401 52.8104 161.401 51.6094C161.401 50.4083 160.64 47.2348 160.64 47.2348" stroke="#263238" stroke-linecap="round" stroke-linejoin="round"/>
<path d="M121.393 47.0144L144.585 45.0494L145.66 49.7765L122.794 58.364C122.794 58.364 119.468 59.1537 118.02 57.1042C117.4 56.2819 116.958 55.3386 116.722 54.3348C116.487 53.331 116.463 52.2888 116.652 51.2751C117.018 49.6223 118.462 47.8115 118.462 47.8115" fill="white"/>
<path d="M121.393 47.0144L144.585 45.0494L145.66 49.7765L122.794 58.364C122.794 58.364 119.468 59.1537 118.02 57.1042C117.4 56.2819 116.958 55.3386 116.722 54.3348C116.487 53.331 116.463 52.2888 116.652 51.2751C117.018 49.6223 118.462 47.8115 118.462 47.8115" stroke="#263238" stroke-linecap="round" stroke-linejoin="round"/>
<path d="M144.731 45.6077C144.731 45.6077 148.276 45.5305 149.282 46.3166C150.288 47.1026 152.907 49.2182 152.907 49.2182L145.506 48.9905L144.731 45.6077Z" fill="white" stroke="#263238" stroke-linecap="round" stroke-linejoin="round"/>
<path d="M131.09 46.2982C131.09 46.2982 126.7 44.4323 126.042 44.5058C125.383 44.5792 123.115 46.7977 123.115 46.7977L131.09 46.2982Z" fill="white" stroke="#263238" stroke-linecap="round" stroke-linejoin="round"/>
<path d="M137.525 84.6591L137.546 86.973" stroke="#263238" stroke-linecap="round" stroke-linejoin="round"/>
<path d="M137.473 55.7635L137.506 82.7895" stroke="#263238" stroke-linecap="round" stroke-linejoin="round"/>
<path d="M152.698 71.8182C153.088 71.7213 153.465 71.5783 153.821 71.3922" stroke="#263238" stroke-linecap="round" stroke-linejoin="round"/>
<path d="M143.944 70.889L143.985 72.3251C143.985 72.3251 148.151 72.5565 151.264 72.1047" stroke="#263238" stroke-linecap="round" stroke-linejoin="round"/>
<path d="M145.243 70.4592C145.243 70.4592 150.185 70.6759 153.715 69.8165" stroke="#263238" stroke-linecap="round" stroke-linejoin="round"/>
<path d="M126.324 70.4592C126.324 70.4592 128.866 72.1084 133.395 71.5354" stroke="#263238" stroke-linecap="round" stroke-linejoin="round"/>
<path d="M126.499 69.0231C126.499 69.0231 129.188 70.6024 133.431 69.8862" stroke="#263238" stroke-linecap="round" stroke-linejoin="round"/>
<path opacity="0.3" d="M3.76807 30.0342H8.06993L10.3306 23.5586L12.4815 34.3536L14.5191 19.926L16.5529 31.6246L18.5905 26.1738L20.5146 29.5824H24.586L26.2833 11.2908L28.544 42.8713L30.695 23.4485L32.5057 34.4638L34.6566 29.5824H86.5826L88.5067 37.5344L90.7711 22.3098L92.5818 32.8734L94.6157 24.3557L96.7666 29.5824H100.275L102.535 32.7595L104.686 21.858L106.61 42.4158L108.758 13.109L110.682 32.6493L112.942 21.1749L114.753 29.4685H118.715" stroke="black" stroke-linecap="round" stroke-linejoin="round"/>
<path opacity="0.3" d="M3.76807 68.4207H8.06993L10.3306 61.9489L12.4815 72.7402L14.5191 58.3126L16.5529 70.0111L18.5905 64.5604L20.5146 67.9689H24.586L26.2833 49.6774L28.544 81.2579L30.695 61.835L32.5057 72.854L34.6566 67.9689H86.5826L88.5067 75.921L90.7711 60.6964L92.5818 71.2636L94.6157 62.7423L96.7666 67.9689H100.275L102.535 71.1498L104.686 60.2446L106.61 80.8061L108.758 51.4955L110.682 71.0359L112.942 59.5614L114.753 67.8551H118.715" stroke="black" stroke-linecap="round" stroke-linejoin="round"/>
<path d="M20.456 102.139C9.48184 102.139 2.08893 98.0068 0.501339 90.8958C-1.32768 82.6646 5.39946 70.1066 24.5384 61.9966C60.8445 46.6104 97.4323 52.9464 108.827 68.5199C110.851 71.2333 112.407 74.2691 113.429 77.5004L110.451 78.4186C109.532 75.5203 108.135 72.7975 106.318 70.3637C101.178 63.3373 89.6992 58.2428 75.612 56.7736C59.7544 55.0987 42.0421 57.9747 25.7492 64.8799C13.0997 70.2425 1.40853 80.6739 3.53752 90.2237C4.86173 96.1445 11.8486 99.4062 22.2375 98.9874C32.4068 98.5614 43.6663 96.3796 55.7049 92.5046L56.656 95.4834C44.3503 99.4429 32.8129 101.672 22.3655 102.095C21.718 102.128 21.0815 102.139 20.456 102.139Z" fill="#263238" stroke="#263238" stroke-linecap="round" stroke-linejoin="round"/>
<path d="M31.8252 85.4891C31.8252 85.4891 34.9236 94.8186 43.6517 100.754C53.6066 107.416 64.872 111.851 76.6838 113.757C89.2602 115.736 94.9741 114.983 97.7981 111.024C100.622 107.064 104.836 98.4916 99.8649 80.1192C94.8936 61.7469 93.1999 62.97 93.1999 62.97C92.5646 59.8133 90.9951 56.9227 88.6969 54.6763C84.8486 50.9078 77.9971 48.4579 77.9971 48.4579C77.9971 48.4579 75.0889 51.9436 68.9873 51.9436C62.8857 51.9436 55.7561 49.3982 51.2531 49.5892C46.75 49.7802 40.835 55.8076 36.3319 70.2241C31.8289 84.6407 31.8252 85.4891 31.8252 85.4891Z" fill="#34BDA7"/>
<path opacity="0.58" d="M89.4614 102.444C89.9223 101.279 90.1564 100.35 88.7664 98.0361C87.3763 95.7221 82.7416 91.7553 82.2806 88.0345C81.8197 84.3138 81.5856 81.5223 83.2061 83.6269C84.8266 85.7316 90.3869 95.4871 91.0819 89.4413C91.7769 83.3955 85.5217 77.3461 85.0571 75.9504C84.5925 74.5546 93.3974 75.9504 92.2378 72.2296C91.0782 68.5089 85.7521 68.2554 84.3657 65.0122C82.9793 61.7689 82.9757 60.1271 81.5856 59.1978C80.5431 58.4999 70.2164 53.2034 63.8148 51.4845C62.8198 51.3302 61.8248 51.1502 60.8445 50.9629C60.28 50.8941 59.7081 51.0005 59.2057 51.2678C59.2057 51.2678 61.8944 56.8691 63.749 58.4962C65.6036 60.1234 70.9297 60.1234 70.4652 62.6835C70.0006 65.2436 70.2347 71.5207 72.5502 74.5436C74.8658 77.5665 77.6459 74.0808 75.5608 85.9299C73.4757 97.779 75.5608 101.746 76.2558 103.373C76.9509 105 77.88 108.956 72.3198 109.419C68.8739 109.709 68.5447 111.068 69.119 112.17C71.5991 112.813 74.1269 113.353 76.6948 113.757C86.513 115.303 92.1574 115.182 95.4972 113.173C95.5117 112.583 95.3443 112.003 95.018 111.512C93.167 108.489 88.9968 103.604 89.4614 102.444Z" fill="white"/>
<path opacity="0.58" d="M46.1428 59.6496C45.8465 62.3419 39.7925 68.6962 35.5125 72.8724C31.8545 84.7362 31.8545 85.4781 31.8545 85.4781C31.8545 85.4781 34.9529 94.8076 43.681 100.743C48.486 103.978 53.6218 106.687 59.0009 108.824C58.4887 107.402 57.5376 105.709 55.8915 104.754C52.6468 102.892 50.5654 99.6376 48.2462 96.8461C45.927 94.0546 44.5406 94.7525 42.6896 92.6588C40.8387 90.5652 42.6896 84.2881 45.7002 83.3551C48.7108 82.4222 48.4803 79.6344 48.9412 76.6115C49.4021 73.5886 52.8956 66.1618 55.4269 64.5163C57.9583 62.8708 58.9021 57.0748 58.9021 57.0748C59.7325 54.3678 59.3301 51.8371 57.8449 50.3458C55.3867 49.8757 53.1151 49.4974 51.2824 49.5745C48.0414 49.7618 46.6074 55.4623 46.1428 59.6496Z" fill="white"/>
<path d="M31.8252 85.4891C31.8252 85.4891 34.9236 94.8186 43.6517 100.754C53.6066 107.416 64.872 111.851 76.6838 113.757C89.2602 115.736 94.9741 114.983 97.7981 111.024C100.622 107.064 104.836 98.4916 99.8649 80.1192C94.8936 61.7469 93.1999 62.97 93.1999 62.97C92.5646 59.8133 90.9951 56.9227 88.6969 54.6763C84.8486 50.9078 77.9971 48.4579 77.9971 48.4579C77.9971 48.4579 75.0889 51.9436 68.9873 51.9436C62.8857 51.9436 55.7561 49.3982 51.2531 49.5892C46.75 49.7802 40.835 55.8076 36.3319 70.2241C31.8289 84.6407 31.8252 85.4891 31.8252 85.4891Z" stroke="#263238" stroke-linecap="round" stroke-linejoin="round"/>
<path d="M70.1359 57.5229C70.1359 57.5229 73.1245 60.9865 76.2594 64.2298C77.9568 65.9818 80.8539 73.5923 79.7382 78.9035C78.6225 84.2146 77.7922 91.6231 80.0199 95.6744C82.2477 99.7257 81.827 104.339 84.1937 107.274C86.5605 110.208 89.4833 110.488 89.7613 113.283" stroke="#263238" stroke-linecap="round" stroke-linejoin="round"/>
<path d="M77.2362 65.295C77.2362 65.295 80.0675 66.6724 81.3442 68.2334C82.8994 70.1668 85.0534 71.5229 87.4641 72.0864C90.2954 72.7291 92.6695 75.0248 93.317 77.1294" stroke="#263238" stroke-linecap="round" stroke-linejoin="round"/>
<path d="M89.4724 88.681C89.3809 87.8546 88.0091 85.008 85.9094 83.3625C83.8097 81.717 83.5353 79.6895 82.8074 78.5031C82.0794 77.3167 79.9761 77.1257 79.9761 77.1257" stroke="#263238" stroke-linecap="round" stroke-linejoin="round"/>
<path d="M78.6042 88.13C78.6042 88.13 78.8786 89.4156 82.3501 91.5239C85.8216 93.6322 86.3739 96.3833 87.1897 97.9443" stroke="#263238" stroke-linecap="round" stroke-linejoin="round"/>
<path d="M84.5413 93.4485C84.5413 93.4485 84.9985 96.387 85.5472 97.6688" stroke="#263238" stroke-linecap="round" stroke-linejoin="round"/>
<path d="M80.02 95.6744C80.02 95.6744 79.2445 96.1078 79.0616 101.518C78.9342 105.122 79.753 108.697 81.4357 111.883" stroke="#263238" stroke-linecap="round" stroke-linejoin="round"/>
<path d="M81.3441 98.7671C81.8815 100.02 82.588 101.193 83.4438 102.253C84.9071 104.089 89.198 105.647 90.0283 106.014" stroke="#263238" stroke-linecap="round" stroke-linejoin="round"/>
<path d="M74.8585 62.8084C74.8585 62.8084 74.3134 64.1857 74.0391 67.3959C73.7647 70.6061 75.1365 71.888 75.1365 71.888" stroke="#263238" stroke-linecap="round" stroke-linejoin="round"/>
<path d="M54.9075 50.4891C54.9075 50.4891 56.3268 55.5836 54.2966 62.5108C52.2664 69.4381 44.9649 75.3443 41.7202 79.01C38.4756 82.6756 36.8477 87.5681 38.2707 90.826C39.6937 94.084 42.1263 99.3841 50.4447 101.845" stroke="#263238" stroke-linecap="round" stroke-linejoin="round"/>
<path d="M52.8773 66.1765C52.8773 66.1765 53.8942 67.3996 52.8773 72.6961C51.8604 77.9926 54.0954 81.6582 54.0954 81.6582" stroke="#263238" stroke-linecap="round" stroke-linejoin="round"/>
<path d="M38.8779 83.491C38.8779 83.491 36.2405 85.9483 35.849 88.1778C35.4576 90.4073 36.6611 92.4568 36.6611 92.4568" stroke="#263238" stroke-linecap="round" stroke-linejoin="round"/>
<path d="M44.1528 98.7707C44.1528 98.7707 46.5891 102.032 49.6399 103.663" stroke="#263238" stroke-linecap="round" stroke-linejoin="round"/>
<path d="M93.2109 62.97C92.5756 59.8133 91.0061 56.9227 88.7078 54.6763C84.8595 50.9078 78.008 48.4579 78.008 48.4579C78.008 48.4579 75.0999 51.9436 68.9983 51.9436C68.2923 51.9436 67.568 51.9069 66.8364 51.8481C65.8084 53.3173 65.3366 54.9408 65.995 56.5606C65.995 56.5606 66.3608 57.7874 68.1532 58.4448C69.9457 59.1023 71.3467 57.5045 73.4099 58.2575C75.473 59.0105 76.2266 60.8947 81.0918 61.1775C85.957 61.4604 85.9716 61.3685 87.1897 62.4961C88.4079 63.6238 91.4294 64.4759 93.2109 62.97Z" fill="#C4C4C4" stroke="#263238" stroke-linecap="round" stroke-linejoin="round"/>
<path d="M33.7127 53.2585C33.7127 53.2585 30.8997 60.4246 30.8997 63.3446C30.8997 66.2646 29.773 79.1753 30.2412 83.4176C30.7095 87.6599 34.4663 85.8675 36.8257 83.2266C39.1852 80.5857 39.829 77.7611 44.2406 73.618C48.6522 69.4748 50.4337 67.8697 52.2151 64.0057C53.9966 60.1417 55.1672 57.1189 54.3478 54.9077C53.5284 52.6966 48.8387 48.3624 44.4271 47.6095C40.0155 46.8565 35.026 48.5424 33.7127 53.2585Z" fill="#C4C4C4" stroke="#263238" stroke-linecap="round" stroke-linejoin="round"/>
<path d="M54.3332 54.9077C54.3332 54.9077 50.2362 55.6754 48.2426 54.0923C46.2489 52.5093 43.5127 51.2568 42.9311 47.5874C42.3494 43.9181 41.7678 34.0818 44.3431 29.4134C46.9183 24.745 50.2362 22.7432 50.2362 22.7432L45.3381 17.1933C45.0839 16.9109 44.9005 16.5716 44.8033 16.2037C44.706 15.8357 44.6977 15.4498 44.7789 15.078C44.8601 14.7061 45.0286 14.3592 45.2702 14.0659C45.5119 13.7726 45.8199 13.5415 46.1684 13.3918L46.2416 13.3624C46.6741 13.2064 47.1422 13.1796 47.5895 13.2852C48.0368 13.3908 48.4441 13.6243 48.762 13.9574L53.0639 18.332C53.1917 18.4621 53.3446 18.5648 53.5133 18.6337C53.6819 18.7026 53.8627 18.7364 54.0448 18.733C54.2268 18.7295 54.4062 18.689 54.5722 18.6137C54.7381 18.5385 54.887 18.4301 55.01 18.2952C55.2284 18.0547 55.3528 17.743 55.3602 17.4176C55.3676 17.0922 55.2575 16.7751 55.0502 16.5248L51.0263 11.7095C50.7976 11.4356 50.6426 11.1073 50.5763 10.756C50.51 10.4047 50.5345 10.0423 50.6475 9.70325C50.7606 9.36423 50.9583 9.05999 51.2219 8.81962C51.4855 8.57926 51.8061 8.4108 52.153 8.33037L52.2335 8.31201C52.6648 8.23545 53.1085 8.27424 53.5201 8.42446C53.9317 8.57469 54.2967 8.83106 54.5783 9.16782L59.5569 14.9565C59.712 15.1362 59.9244 15.2563 60.1578 15.2965C60.3913 15.3367 60.6313 15.2944 60.8372 15.1768C61.0133 15.077 61.1562 14.9272 61.248 14.7463C61.3397 14.5653 61.3763 14.3612 61.353 14.1594L60.497 6.69221C60.4553 6.35212 60.4944 6.00693 60.6113 5.68498C60.7281 5.36302 60.9194 5.07348 61.1693 4.84012C61.4192 4.60676 61.7206 4.43623 62.0489 4.34253C62.3771 4.24883 62.7229 4.23462 63.0577 4.30109L63.1418 4.31945C63.5387 4.41726 63.9001 4.62569 64.1842 4.92072C64.4683 5.21574 64.6637 5.58536 64.7477 5.98699L66.5255 14.9895C66.5255 14.9895 70.5128 15.074 73.4173 25.0793C76.3217 35.0845 73.9989 40.8364 73.666 42.4195C73.3331 44.0026 62.6919 48.8399 59.2204 51.2568C57.5273 52.3849 55.8959 53.6037 54.3332 54.9077Z" fill="#34BDA7" stroke="#263238" stroke-linecap="round" stroke-linejoin="round"/>
<path d="M37.6122 21.1859C37.1741 21.4229 36.8073 21.7734 36.55 22.2011C36.2926 22.6287 36.1542 23.1178 36.149 23.6174C36.0155 26.9281 35.5336 30.2154 34.7113 33.4243C33.5573 38.2512 33.1368 43.2256 33.464 48.1788C33.5481 50.0153 33.7127 53.2659 33.7127 53.2659C33.7127 53.2659 37.0342 50.4303 38.9437 49.1815C40.8532 47.9327 43.3882 49.6957 43.3882 49.6957C43.3882 49.6957 42.5981 43.6794 43.8418 40.6748C45.0856 37.6703 50.8177 34.2581 53.0601 33.5051C55.3025 32.7522 56.3816 31.507 55.7159 29.0057C55.0501 26.5044 53.4735 26.0673 52.4785 26.3354C51.4835 26.6036 49.6545 27.0039 46.9146 27.419C44.1747 27.834 43.926 26.5852 43.7614 24.5871C43.7138 24.0435 43.6882 23.5403 43.6736 23.1179C43.6563 22.4003 43.367 21.7164 42.8646 21.2059C42.3622 20.6953 41.6846 20.3965 40.9703 20.3705C39.7991 20.342 38.641 20.6232 37.6122 21.1859Z" fill="#999999" stroke="#263238" stroke-linecap="round" stroke-linejoin="round"/>
<path d="M55.3537 29.2665C55.6573 30.8496 55.1708 32.2747 54.2563 32.4473C53.3418 32.6199 52.3797 31.4776 52.0615 29.8762C51.7432 28.2748 52.2444 26.868 53.1589 26.6954C54.0734 26.5228 55.0538 27.6834 55.3537 29.2665Z" fill="#454545" stroke="#263238" stroke-linecap="round" stroke-linejoin="round"/>
<path d="M53.0638 18.3136L55.7671 21.0353" stroke="#263238" stroke-linecap="round" stroke-linejoin="round"/>
<path d="M59.5715 14.9381L61.492 17.2668" stroke="#263238" stroke-linecap="round" stroke-linejoin="round"/>
<path d="M54.3331 54.9077C54.3331 54.9077 55.2659 42.7207 62.4723 36.2893C69.6786 29.8579 82.6903 27.7275 84.2962 27.7018C84.8303 27.7018 85.6826 29.3253 85.6826 31.8707C85.6826 34.416 87.7384 37.6446 86.5349 38.1809C85.3314 38.7171 79.014 39.5032 77.024 40.8438C75.034 42.1844 76.4899 42.1844 77.6898 45.2514C78.8896 48.3184 79.014 49.1485 77.1447 51.4221C75.2754 53.6956 69.0092 57.0491 64.3415 56.3769C59.6739 55.7048 59.0081 53.0308 57.3913 53.6993C55.7744 54.3678 54.3331 54.9077 54.3331 54.9077Z" fill="#999999" stroke="#263238" stroke-linecap="round" stroke-linejoin="round"/>
<path d="M87.1129 32.5759C87.7312 35.4702 87.4787 37.9789 86.535 38.1809C85.5912 38.3829 84.3402 36.2011 83.7219 33.3068C83.1037 30.4125 83.3561 27.9038 84.2963 27.7018C85.2364 27.4998 86.4947 29.6815 87.1129 32.5759Z" fill="#454545" stroke="#263238" stroke-linecap="round" stroke-linejoin="round"/>
<path d="M71.9356 47.5213C71.6875 48.1548 71.4894 48.807 71.343 49.4717" stroke="#263238" stroke-linecap="round" stroke-linejoin="round"/>
<path d="M77.0131 40.8438C75.2645 42.1842 73.8101 43.8722 72.7405 45.8023" stroke="#263238" stroke-linecap="round" stroke-linejoin="round"/>
<path d="M65.194 30.5704C65.5248 30.1251 65.884 29.7018 66.2694 29.3032" stroke="#263238" stroke-linecap="round" stroke-linejoin="round"/>
<path d="M60.5884 38.0633C60.5884 38.0633 62.2125 34.989 63.9574 32.3371" stroke="#263238" stroke-linecap="round" stroke-linejoin="round"/>
<path d="M74.3208 131.082C68.9508 131.082 65.3805 130.01 63.6612 127.879C62.4468 126.37 62.198 124.364 62.9955 122.23C63.8405 119.942 67.0559 116.416 72.5503 111.751C76.5741 108.343 80.3968 105.507 80.437 105.507L81.7503 107.31C77.602 110.355 66.5218 119.115 65.0806 123.02C64.5648 124.423 64.6672 125.591 65.3915 126.491C66.5291 127.898 70.3299 129.988 83.0269 128.136L83.3488 130.34C80.3608 130.802 77.3438 131.05 74.3208 131.082Z" fill="white" stroke="#263238" stroke-linecap="round" stroke-linejoin="round"/>
<path d="M75.0523 125.554C73.644 125.554 72.2283 125.499 70.8273 125.382C60.2007 124.493 54.9221 120.456 54.699 113.04L56.9231 112.971C57.0511 117.176 58.7521 122.131 71.0139 123.156C83.2756 124.181 96.9311 119.942 97.0665 119.898L97.7286 122.032C97.2164 122.193 86.3301 125.554 75.0523 125.554Z" fill="white" stroke="#263238" stroke-linecap="round" stroke-linejoin="round"/>
<path d="M81.838 132.963C81.0549 132.965 80.2996 132.671 79.7228 132.139C79.1459 131.607 78.79 130.877 78.7258 130.093C78.6616 129.309 78.894 128.53 79.3766 127.911C79.8592 127.292 80.5565 126.878 81.3295 126.752C81.3551 126.752 83.9231 126.311 86.5825 125.609C87.36 125.457 88.1661 125.608 88.8368 126.031C89.5075 126.455 89.9925 127.118 90.1933 127.888C90.394 128.657 90.2955 129.475 89.9177 130.174C89.5398 130.873 88.911 131.401 88.1591 131.651C85.2107 132.43 82.4562 132.893 82.3428 132.911C82.1762 132.942 82.0074 132.959 81.838 132.963Z" fill="#263238" stroke="#263238" stroke-linecap="round" stroke-linejoin="round"/>
<path d="M56.111 117.936C55.5127 117.936 54.9273 117.762 54.4246 117.437C53.9219 117.111 53.5231 116.647 53.276 116.1C52.2773 113.896 52.248 111.204 52.248 110.903C52.3021 110.112 52.6532 109.371 53.2304 108.83C53.8075 108.289 54.5677 107.988 55.3574 107.988C56.147 107.988 56.9072 108.289 57.4844 108.83C58.0616 109.371 58.4127 110.112 58.4667 110.903C58.4763 111.797 58.6345 112.683 58.935 113.525C59.146 114.001 59.2356 114.522 59.1955 115.042C59.1555 115.561 58.9872 116.062 58.7057 116.5C58.4243 116.937 58.0386 117.297 57.5836 117.548C57.1287 117.798 56.6187 117.93 56.1 117.933L56.111 117.936Z" fill="#263238" stroke="#263238" stroke-linecap="round" stroke-linejoin="round"/>
<path d="M111.779 98.5724C113.714 95.2373 117.317 87.1677 114.278 77.2433C114.069 76.643 113.637 76.1473 113.072 75.8603C112.507 75.5733 111.853 75.5174 111.248 75.7043C110.643 75.8911 110.133 76.3063 109.826 76.8624C109.519 77.4186 109.439 78.0725 109.603 78.6868C110.46 81.5187 110.736 84.496 110.413 87.4382C110.09 90.3803 109.176 93.226 107.726 95.8029C106.87 95.5458 105.762 95.2483 104.485 94.9802C101.292 94.3044 98.9175 94.2787 94.0596 95.9609C89.5016 97.5403 78.6299 105.467 77.4045 106.367C76.8806 106.751 76.5304 107.329 76.4309 107.973C76.3314 108.617 76.4908 109.275 76.874 109.801C77.2573 110.327 77.8329 110.678 78.4743 110.778C79.1158 110.878 79.7704 110.718 80.2943 110.333C83.4549 108.012 92.3842 101.739 95.6581 100.607C99.6564 99.2225 101.178 99.2997 103.483 99.7882C104.792 100.062 106.084 100.413 107.353 100.839C108.684 102.463 109.577 104.403 109.946 106.473C110.912 112.717 100.673 116.629 95.1753 118.722L94.1327 119.123C93.5268 119.357 93.0383 119.823 92.7745 120.418C92.5107 121.014 92.4934 121.69 92.7262 122.298C92.959 122.907 93.423 123.397 94.0161 123.662C94.6092 123.927 95.2827 123.944 95.8886 123.71L96.9092 123.317C103.706 120.746 116.355 115.916 114.779 105.72C114.344 103.136 113.317 100.69 111.779 98.5724Z" fill="white" stroke="#263238" stroke-linecap="round" stroke-linejoin="round"/>
<path d="M28.1671 98.543L28.7268 101.625C37.4366 100.706 46.8012 98.6458 56.6633 95.4724L55.7122 92.4936C45.9599 95.6303 36.7233 97.6578 28.1671 98.543Z" fill="#263238" stroke="#263238" stroke-linecap="round" stroke-linejoin="round"/>
<path d="M90.1218 93.0832C95.2332 87.9509 95.2332 79.6299 90.1218 74.4976C85.0105 69.3654 76.7233 69.3654 71.6119 74.4976C66.5005 79.6299 66.5005 87.9509 71.6119 93.0832C76.7233 98.2155 85.0104 98.2155 90.1218 93.0832Z" fill="#263238" stroke="#263238" stroke-linecap="round" stroke-linejoin="round"/>
<path d="M91.3188 93.0824C96.4302 87.9501 96.4302 79.6291 91.3188 74.4968C86.2075 69.3646 77.9203 69.3646 72.8089 74.4968C67.6975 79.6291 67.6975 87.9501 72.8089 93.0824C77.9203 98.2147 86.2075 98.2147 91.3188 93.0824Z" fill="white" stroke="#263238" stroke-linecap="round" stroke-linejoin="round"/>
<path d="M56.8609 96.1115L55.5038 91.8581C63.3607 89.3564 71.0232 86.2762 78.4288 82.6426L80.4773 86.6021C80.0676 86.8078 70.553 91.7039 56.8609 96.1115Z" fill="white" stroke="#263238" stroke-linecap="round" stroke-linejoin="round"/>
<path d="M80.8686 89.1107C83.796 89.1107 86.1691 86.7279 86.1691 83.7885C86.1691 80.8492 83.796 78.4664 80.8686 78.4664C77.9412 78.4664 75.5681 80.8492 75.5681 83.7885C75.5681 86.7279 77.9412 89.1107 80.8686 89.1107Z" fill="#263238" stroke="#263238" stroke-linecap="round" stroke-linejoin="round"/>
<path d="M81.7649 89.1107C84.6922 89.1107 87.0654 86.7279 87.0654 83.7885C87.0654 80.8492 84.6922 78.4664 81.7649 78.4664C78.8375 78.4664 76.4644 80.8492 76.4644 83.7885C76.4644 86.7279 78.8375 89.1107 81.7649 89.1107Z" fill="white" stroke="#263238" stroke-linecap="round" stroke-linejoin="round"/>
</g>
<defs>
<clipPath id="clip0_35_9379">
<rect width="173" height="148" fill="white" transform="translate(0.000244141)"/>
</clipPath>
</defs>
</svg>
