<svg width="148" height="151" viewBox="0 0 148 151" fill="none" xmlns="http://www.w3.org/2000/svg">
<g clip-path="url(#clip0_50_824)">
<path d="M145.984 77.4536C151.616 41.3329 121.556 4.92261 82.0839 0.400755C81.5918 0.343476 81.0998 0.292561 80.6077 0.241646C53.0146 -2.50456 27.8184 18.6155 20.609 34.7236C13.3996 50.8317 -5.46346 66.1538 1.52687 96.0057C8.51719 125.858 27.5168 141.768 72.0619 146.475C116.607 151.181 124.816 138.414 136.638 110.516C141.071 99.9131 144.209 88.8117 145.984 77.4536Z" fill="#5B81CA"/>
<path opacity="0.7" d="M145.984 77.4536C151.616 41.3329 121.556 4.92261 82.0839 0.400755C81.5918 0.343476 81.0998 0.292561 80.6077 0.241646C53.0146 -2.50456 27.8184 18.6155 20.609 34.7236C13.3996 50.8317 -5.46346 66.1538 1.52687 96.0057C8.51719 125.858 27.5168 141.768 72.0619 146.475C116.607 151.181 124.816 138.414 136.638 110.516C141.071 99.9131 144.209 88.8117 145.984 77.4536Z" fill="white"/>
<path d="M143.159 113.342H1.33008" stroke="#263238" stroke-linecap="round" stroke-linejoin="round"/>
<path d="M147.841 113.342H144.851" stroke="#263238" stroke-linecap="round" stroke-linejoin="round"/>
<path d="M44.5388 11.1726H22.2662V41.3968H44.5388V11.1726Z" stroke="#263238" stroke-linecap="round" stroke-linejoin="round"/>
<path d="M31.3422 14.2434H42.2753V38.326H24.5297V14.2434H29.647" stroke="#263238" stroke-linecap="round" stroke-linejoin="round"/>
<path d="M36.3294 22.3102H30.4724V30.2592H36.3294V22.3102Z" stroke="#263238" stroke-linecap="round" stroke-linejoin="round"/>
<path d="M138.521 22.116V66.6249H71.0112V4.27682" stroke="#263238" stroke-linecap="round" stroke-linejoin="round"/>
<path d="M138.521 6.54889V20.3563" stroke="#263238" stroke-linecap="round" stroke-linejoin="round"/>
<path d="M140.267 7.16623V66.66H147.057" stroke="#263238" stroke-linecap="round" stroke-linejoin="round"/>
<path d="M98.6265 122.577C109.065 122.577 117.528 120.413 117.528 117.743C117.528 115.074 109.065 112.91 98.6265 112.91C88.1877 112.91 79.7253 115.074 79.7253 117.743C79.7253 120.413 88.1877 122.577 98.6265 122.577Z" fill="#263238" stroke="#263238" stroke-linecap="round" stroke-linejoin="round"/>
<path d="M98.6265 121.87C109.065 121.87 117.528 119.706 117.528 117.037C117.528 114.367 109.065 112.203 98.6265 112.203C88.1877 112.203 79.7253 114.367 79.7253 117.037C79.7253 119.706 88.1877 121.87 98.6265 121.87Z" fill="#787878" stroke="#263238" stroke-linecap="round" stroke-linejoin="round"/>
<path d="M107.201 112.241L74.0048 118.774V6.51071H107.201V112.241Z" fill="white" stroke="#263238" stroke-linecap="round" stroke-linejoin="round"/>
<path d="M113.163 113.002L79.9666 119.535V6.5298H113.163V113.002Z" fill="#787878" stroke="#263238" stroke-linecap="round" stroke-linejoin="round"/>
<path d="M79.9665 119.535L74.0048 118.774V6.51071L79.9665 6.52981V119.535Z" fill="#C2C2C2" stroke="#263238" stroke-linecap="round" stroke-linejoin="round"/>
<path d="M99.6264 113.791L92.0393 115.611V73.2025H99.6264V113.791Z" fill="#5B81CA" stroke="#263238" stroke-linecap="round" stroke-linejoin="round"/>
<path d="M96.4487 90.2716C96.0609 90.3649 95.6571 90.3689 95.2676 90.2832C94.878 90.1976 94.5129 90.0245 94.1997 89.777C93.8865 89.5295 93.6334 89.2141 93.4593 88.8544C93.2853 88.4947 93.1948 88.1002 93.1948 87.7004V73.8676H98.4741V87.7004C98.4739 88.2948 98.2739 88.8718 97.9065 89.3383C97.539 89.8048 97.0255 90.1335 96.4487 90.2716Z" fill="#263238" stroke="#263238" stroke-linecap="round" stroke-linejoin="round"/>
<path d="M99.0137 76.3433C108.28 76.3433 115.791 68.0843 115.791 57.8963C115.791 47.7083 108.28 39.4493 99.0137 39.4493C89.7478 39.4493 82.2363 47.7083 82.2363 57.8963C82.2363 68.0843 89.7478 76.3433 99.0137 76.3433Z" fill="white" stroke="#263238" stroke-linecap="round" stroke-linejoin="round"/>
<path d="M116.839 31.7134V35.3475H127.715V23.1343C127.715 22.4952 127.462 21.8821 127.011 21.4299C126.56 20.9776 125.949 20.7231 125.312 20.7223H104.001C101.613 20.7223 99.3232 21.6731 97.6348 23.3655C95.9465 25.058 94.9979 27.3534 94.9979 29.7469V40.7126H108.379V37.9378C108.379 37.1193 108.54 36.3089 108.852 35.5529C109.165 34.7969 109.624 34.1101 110.202 33.532C110.78 32.9539 111.466 32.4956 112.221 32.1836C112.975 31.8715 113.784 31.7118 114.601 31.7134H116.839Z" fill="#787878" stroke="#263238" stroke-linecap="round" stroke-linejoin="round"/>
<path d="M101.747 74.8381C109.503 74.8381 115.791 67.253 115.791 57.8963C115.791 48.5396 109.503 40.9545 101.747 40.9545C93.9907 40.9545 87.7029 48.5396 87.7029 57.8963C87.7029 67.253 93.9907 74.8381 101.747 74.8381Z" fill="#5B81CA" stroke="#263238" stroke-linecap="round" stroke-linejoin="round"/>
<path d="M101.747 67.8724C106.314 67.8724 110.017 63.4059 110.017 57.8963C110.017 52.3866 106.314 47.9202 101.747 47.9202C97.1798 47.9202 93.4773 52.3866 93.4773 57.8963C93.4773 63.4059 97.1798 67.8724 101.747 67.8724Z" fill="white" stroke="#263238" stroke-linecap="round" stroke-linejoin="round"/>
<path d="M114.14 34.1828H107.379V60.2224H114.14V34.1828Z" fill="#787878" stroke="#263238" stroke-linecap="round" stroke-linejoin="round"/>
<path d="M107.379 34.1828H107.236C106.104 34.2757 105.049 34.7927 104.28 35.6307C103.512 36.4688 103.087 37.5664 103.09 38.7047V60.1429H107.379V34.1828Z" fill="white" stroke="#263238" stroke-linecap="round" stroke-linejoin="round"/>
<path d="M111.296 55.1787C112.411 55.1787 113.315 54.2726 113.315 53.1549C113.315 52.0371 112.411 51.131 111.296 51.131C110.181 51.131 109.277 52.0371 109.277 53.1549C109.277 54.2726 110.181 55.1787 111.296 55.1787Z" fill="#263238" stroke="#263238" stroke-linecap="round" stroke-linejoin="round"/>
<path d="M112.004 31.7134V35.3475H117.963V23.1343C117.962 22.4943 117.707 21.8808 117.256 21.4285C116.804 20.9763 116.192 20.7223 115.553 20.7223H101.839C99.4518 20.7231 97.1627 21.6743 95.475 23.3666C93.7873 25.059 92.8392 27.3539 92.8392 29.7469V40.7126H98.6201V37.9378C98.6209 36.2867 99.2758 34.7035 100.441 33.5363C101.606 32.3691 103.186 31.7134 104.833 31.7134H112.004Z" fill="#5B81CA" stroke="#263238" stroke-linecap="round" stroke-linejoin="round"/>
<path d="M117.048 27.0898C116.637 26.512 116.094 26.041 115.465 25.7161C114.835 25.3912 114.137 25.2217 113.429 25.2218H106.312C103.357 25.2227 100.524 26.3998 98.4351 28.4944C96.3461 30.589 95.1726 33.4295 95.1726 36.3912V40.7126H98.6233V37.9378C98.6242 36.2867 99.2791 34.7035 100.444 33.5363C101.609 32.3691 103.189 31.7134 104.836 31.7134H112.004V35.3475H117.874V29.68C117.874 28.7517 117.585 27.8463 117.048 27.0898Z" fill="white" stroke="#263238" stroke-linecap="round" stroke-linejoin="round"/>
<path d="M117.607 60.0251H97.9789V65.3489H117.607V60.0251Z" fill="white" stroke="#263238" stroke-linecap="round" stroke-linejoin="round"/>
<path d="M106.226 46.1414C106.226 47.2138 105.69 48.0825 105.029 48.0825C104.369 48.0825 103.833 47.2138 103.833 46.1414C103.833 45.069 104.369 44.1971 105.029 44.1971C105.69 44.1971 106.226 45.0531 106.226 46.1414Z" fill="#5B81CA" stroke="#263238" stroke-linecap="round" stroke-linejoin="round"/>
<path d="M119.997 52.2861H107.461V53.5272H119.997V52.2861Z" fill="#263238" stroke="#263238" stroke-linecap="round" stroke-linejoin="round"/>
<path d="M119.997 56.9989H107.461V58.24H119.997V56.9989Z" fill="white" stroke="#263238" stroke-linecap="round" stroke-linejoin="round"/>
<path d="M87.4204 114.039L90.887 118.504L87.4109 117.934L87.4204 114.039Z" fill="#787878" stroke="#263238" stroke-linecap="round" stroke-linejoin="round"/>
<path d="M87.4204 114.039L104.245 110.237L106.883 114.784L90.887 118.504L87.4204 114.039Z" fill="#C2C2C2" stroke="#263238" stroke-linecap="round" stroke-linejoin="round"/>
<path d="M94.8646 113.549L96.1376 115.334L99.1217 114.561L97.763 112.773L94.8646 113.549Z" fill="#263238" stroke="#263238" stroke-linecap="round" stroke-linejoin="round"/>
<path d="M132.416 105.855C132.416 105.855 132.511 114.31 132.073 117.387C131.635 120.464 131.391 120.174 131.391 121.842C131.391 123.509 132.026 125.457 132.026 126.093C132.036 126.411 131.934 126.723 131.738 126.973C131.542 127.224 131.264 127.397 130.953 127.462C130.223 127.656 126.664 127.509 126.664 127.509C126.664 127.509 124.518 127.462 124.175 127.315C123.832 127.169 124.762 126.485 125.347 126.24C125.931 125.995 127.004 123.99 127.2 123.455C127.397 122.921 128.175 122.672 128.175 119.789C128.175 116.906 126.321 106.692 126.321 106.692L132.416 105.855Z" fill="white" stroke="#263238" stroke-linecap="round" stroke-linejoin="round"/>
<path d="M132.026 126.087C131.967 125.551 131.872 125.019 131.74 124.496C129.616 125.088 128.147 124.556 127.883 124.426C127.62 124.295 127.201 123.449 127.201 123.449C127.004 123.983 125.931 125.995 125.347 126.233C124.763 126.472 123.836 127.162 124.175 127.309C124.515 127.455 126.664 127.503 126.664 127.503C126.664 127.503 130.223 127.649 130.953 127.455C131.264 127.39 131.542 127.217 131.738 126.967C131.934 126.717 132.036 126.405 132.026 126.087Z" fill="#5B81CA" stroke="#263238" stroke-linecap="round" stroke-linejoin="round"/>
<path d="M122.083 106.135C122.083 106.135 123.194 111.64 123.864 117.218C124.534 122.796 123.566 123.166 122.455 124.219C121.343 125.272 117.855 126.004 117.855 126.676C117.855 127.347 118.893 127.63 121.118 127.789C123.343 127.948 127.651 128.006 128.467 127.859C129.283 127.713 128.981 126.905 128.908 126.08C128.835 125.256 128.016 121.543 128.016 121.543C128.016 121.543 128.537 116.187 128.686 113.956C128.835 111.726 129.058 107.274 128.61 105.851C128.162 104.429 122.083 106.135 122.083 106.135Z" fill="white" stroke="#263238" stroke-linecap="round" stroke-linejoin="round"/>
<path d="M124.08 125.352C124.08 125.352 123.153 125.256 123.007 124.865C122.935 124.497 122.918 124.121 122.956 123.748C122.794 123.901 122.639 124.047 122.455 124.206C121.34 125.25 117.855 125.991 117.855 126.663C117.855 127.334 118.893 127.617 121.118 127.777C123.343 127.936 127.651 127.993 128.467 127.847C129.283 127.7 128.981 126.892 128.908 126.068C128.893 125.896 128.845 125.6 128.778 125.24C128.6 125.266 128.413 125.288 128.223 125.304C126.843 125.39 125.461 125.406 124.08 125.352Z" fill="#5B81CA" stroke="#263238" stroke-linecap="round" stroke-linejoin="round"/>
<path d="M123.566 49.8231C123.566 49.8231 121.677 50.2241 120.82 51.8884C119.962 53.5526 116.639 59.8056 116.296 62.6886C115.953 65.5717 117.67 71.9837 117.67 71.9837L115.153 105.715C115.153 105.715 116.01 106.402 116.524 106.517C117.132 106.598 117.744 106.636 118.356 106.631C118.356 106.631 118.756 107.322 120.245 107.436C121.734 107.551 124.654 107.493 124.94 107.551C125.903 107.722 126.88 107.799 127.858 107.78C129.004 107.723 130.032 106.86 130.032 106.86C130.032 106.86 132.553 107.207 133.981 106.345C135.41 105.482 135.756 105.024 135.756 105.024C135.756 105.024 134.442 96.9923 134.27 92.9764C134.099 88.9605 134.156 80.7569 133.581 75.9932C133.007 71.2295 131.864 69.9121 131.864 69.9121C131.864 69.9121 132.953 69.3966 132.838 68.3624C132.724 67.3282 132.61 66.2399 133.124 62.4531C133.638 58.6664 134.156 55.2264 133.296 53.158C132.435 51.0896 131.921 50.4055 131.921 50.4055L131.35 50.2336L123.566 49.8231Z" fill="#5B81CA" stroke="#263238" stroke-linecap="round" stroke-linejoin="round"/>
<path d="M125.34 70.644C125.34 70.644 127.115 71.7896 131.178 69.8389" stroke="#263238" stroke-linecap="round" stroke-linejoin="round"/>
<path d="M131.464 70.765C131.464 70.765 129.747 72.6742 125.115 71.9105" stroke="#263238" stroke-linecap="round" stroke-linejoin="round"/>
<path d="M130.245 106.211L130.54 98.402" stroke="#263238" stroke-linecap="round" stroke-linejoin="round"/>
<path d="M118.356 106.622L118.594 96.0218" stroke="#263238" stroke-linecap="round" stroke-linejoin="round"/>
<path d="M118.671 94.8317L118.744 92.8237" stroke="#263238" stroke-linecap="round" stroke-linejoin="round"/>
<path d="M129.724 71.9996C129.724 71.9996 130.391 72.5947 130.677 74.1571" stroke="#263238" stroke-linecap="round" stroke-linejoin="round"/>
<path d="M127.35 72.2224L127.423 73.858" stroke="#263238" stroke-linecap="round" stroke-linejoin="round"/>
<path d="M123.489 49.8454L123.572 49.8231C123.572 49.8231 126.95 51.096 128.15 52.232C129.35 53.3681 131.108 57.5112 131.407 58.5518C131.543 59.0387 131.702 59.7547 131.832 60.3752C132.15 59.3601 132.784 57.2662 132.784 55.9202C132.784 54.084 132.096 50.8701 131.353 50.24C130.61 49.6099 129.131 48.633 129.131 48.633L128.496 46.4532C128.496 46.4532 129.131 43.9298 129.131 42.8956C129.131 41.8614 126.785 41.575 126.556 41.75C126.328 41.925 123.293 45.594 122.49 45.8868C122.49 45.8868 123.807 48.353 123.759 49.0976C123.722 49.3629 123.63 49.6176 123.489 49.8454Z" fill="white" stroke="#263238" stroke-linecap="round" stroke-linejoin="round"/>
<path d="M124.804 45.5081L123.404 47.6465L122.477 45.8645L124.804 45.5081Z" fill="#263238" stroke="#263238" stroke-linecap="round" stroke-linejoin="round"/>
<path d="M120.696 37.1581C120.696 37.1581 119.632 35.9712 119.988 35.1438C120.343 34.3164 121.759 34.256 121.759 34.256C121.759 34.256 125.718 32.8336 127.67 33.069C129.623 33.3045 132.81 36.0921 133.4 39.0515C133.991 42.0109 133.045 44.2034 131.981 45.3299C130.918 46.4564 127.432 47.3442 126.664 46.9878C125.896 46.6314 125.305 45.3967 125.305 45.3967L126.258 44.9799L126.14 44.2703L127.204 43.1438C127.204 43.1438 124.248 42.0205 123.007 41.1899C121.766 40.3594 120.696 37.1581 120.696 37.1581Z" fill="#263238" stroke="#263238" stroke-linecap="round" stroke-linejoin="round"/>
<path d="M121.585 35.7357C121.585 35.7357 119.997 37.2759 119.997 38.5774C119.997 39.8789 120.632 39.5861 119.88 40.5917C119.128 41.5972 119.051 41.3013 119.112 41.5972C119.253 41.9883 119.431 42.3654 119.642 42.7237C119.642 42.7237 119.858 45.4349 120.213 45.9059C120.569 46.3768 121.534 46.3323 123.128 46.2241C124.721 46.1159 126.143 44.2702 126.143 44.2702C126.143 44.2702 127.096 44.5662 127.619 43.9743C127.933 43.6324 128.12 43.1933 128.15 42.7301C128.15 42.7301 125.315 42.0205 123.896 41.0117C122.477 40.003 121.585 36.2098 121.585 35.7357Z" fill="white" stroke="#263238" stroke-linecap="round" stroke-linejoin="round"/>
<path d="M121.004 40.2957C121.004 40.7031 120.883 41.0308 120.737 41.0308C120.591 41.0308 120.47 40.7126 120.47 40.2957C120.47 39.8789 120.591 39.5607 120.737 39.5607C120.883 39.5607 121.004 39.8884 121.004 40.2957Z" fill="#263238"/>
<path d="M120.537 39.0261C120.537 39.0261 121.07 38.7588 121.27 39.427" stroke="#263238" stroke-linecap="round" stroke-linejoin="round"/>
<path d="M119.997 43.236C119.997 43.236 120.331 43.3697 120.797 42.9019" stroke="#263238" stroke-linecap="round" stroke-linejoin="round"/>
<path d="M113.264 83.2136C113.264 83.2136 112.629 85.6225 112.518 86.1412C112.407 86.6599 112.804 87.1149 113.093 87.6304C113.193 87.7888 113.327 87.9227 113.485 88.0224C113.643 88.1221 113.821 88.1849 114.007 88.2064C114.222 88.3327 114.452 88.4291 114.693 88.4928C114.887 88.4719 115.08 88.4336 115.267 88.3782C115.396 88.3923 115.525 88.367 115.638 88.3056C115.752 88.2442 115.844 88.1497 115.902 88.0345C116.074 87.6304 115.674 87.2295 115.617 87.0576C115.559 86.8858 115.331 86.2557 115.331 86.2557C115.591 85.9252 115.75 85.5261 115.788 85.107C115.845 84.4196 115.845 84.1332 115.845 84.1332L113.264 83.2136Z" stroke="#263238" stroke-linecap="round" stroke-linejoin="round"/>
<path d="M114.578 86.4212C114.578 86.4212 115.007 87.5572 115.08 87.7545C115.153 87.9518 115.223 88.1873 115.398 88.2764" stroke="#263238" stroke-linecap="round" stroke-linejoin="round"/>
<path d="M113.626 86.4753C113.626 86.4753 114.074 87.5381 114.163 87.7481C114.282 88.0366 114.463 88.2951 114.693 88.5055" stroke="#263238" stroke-linecap="round" stroke-linejoin="round"/>
<path d="M112.852 86.313C112.852 86.313 113.194 87.6272 113.572 87.99" stroke="#263238" stroke-linecap="round" stroke-linejoin="round"/>
<path d="M120.82 51.8884C120.82 51.8884 118.642 57.6162 118.413 61.0116C118.185 64.407 116.296 73.5175 116.296 73.5175C116.296 73.5175 115.382 77.4188 114.864 78.9686C114.347 80.5183 112.747 83.3727 112.747 83.3727C112.747 83.3727 114.293 84.3496 115.782 85.0942C116.715 85.555 117.693 85.9206 118.699 86.1857C118.699 86.1857 122.42 79.5286 123.566 76.5469C124.712 73.5652 125.34 68.1683 125.626 67.2518C125.912 66.3354 127.001 63.9233 126.601 61.1134C126.201 58.3036 125.569 54.3991 125.569 54.1127" fill="#5B81CA"/>
<path d="M120.82 51.8884C120.82 51.8884 118.642 57.6162 118.413 61.0116C118.185 64.407 116.296 73.5175 116.296 73.5175C116.296 73.5175 115.382 77.4188 114.864 78.9686C114.347 80.5183 112.747 83.3727 112.747 83.3727C112.747 83.3727 114.293 84.3496 115.782 85.0942C116.715 85.555 117.693 85.9206 118.699 86.1857C118.699 86.1857 122.42 79.5286 123.566 76.5469C124.712 73.5652 125.34 68.1683 125.626 67.2518C125.912 66.3354 127.001 63.9233 126.601 61.1134C126.201 58.3036 125.569 54.3991 125.569 54.1127" stroke="#263238" stroke-linecap="round" stroke-linejoin="round"/>
<path d="M36.4881 128.871L30.6184 130.927L23.1646 136.155L58.7574 148.391L65.6525 143.067L73.1031 139.987L36.4881 128.871Z" fill="#C2C2C2" stroke="#263238" stroke-linecap="round" stroke-linejoin="round"/>
<path d="M31.3645 132.607L27.1709 135.315L56.9861 145.495L60.9003 142.039L31.3645 132.607Z" fill="#263238" stroke="#263238" stroke-linecap="round" stroke-linejoin="round"/>
<path opacity="0.49" d="M70.027 140.569L36.377 130.663V26.5392C36.3764 25.9901 36.4841 25.4462 36.6938 24.9389C36.9035 24.4316 37.2112 23.9708 37.5992 23.583C38.3803 22.7993 39.4399 22.3586 40.5451 22.3579H65.0335C65.7859 22.3586 66.5275 22.5381 67.1974 22.8816C67.8673 23.2251 68.4464 23.7228 68.8874 24.334C69.4751 25.1477 69.7917 26.1265 69.7921 27.1311L70.027 140.569Z" fill="white"/>
<path d="M70.027 140.569L36.377 130.663V26.5392C36.3764 25.9901 36.4841 25.4462 36.6938 24.9389C36.9035 24.4316 37.2112 23.9708 37.5992 23.583V23.583C38.3803 22.7993 39.4399 22.3586 40.5451 22.3579H65.0335C65.7859 22.3586 66.5275 22.5381 67.1974 22.8816C67.8673 23.2251 68.4464 23.7228 68.8874 24.334V24.334C69.4751 25.1477 69.7917 26.1265 69.7921 27.1311L70.027 140.569Z" stroke="#263238" stroke-linecap="round" stroke-linejoin="round"/>
<path d="M25.2756 100.833L52.2592 106.51L60.0304 104.171L35.3802 98.717L25.2756 100.833Z" fill="#ABABAB" stroke="#263238" stroke-linecap="round" stroke-linejoin="round"/>
<path d="M52.2592 105.301H52.1893C51.9797 105.282 51.786 105.181 51.6509 105.019C51.5157 104.858 51.4502 104.649 51.4687 104.439C51.602 102.908 50.9989 100.855 50.3608 98.6821C50.0084 97.4856 49.6465 96.2477 49.3735 94.9939C48.5862 91.3822 48.6942 85.807 48.7005 85.5715C48.7047 85.3633 48.7901 85.165 48.9385 85.0193C49.0869 84.8735 49.2864 84.7919 49.4941 84.7919H49.5227C49.6269 84.794 49.7297 84.8166 49.8252 84.8585C49.9207 84.9004 50.0071 84.9608 50.0793 85.0361C50.1515 85.1115 50.2082 85.2004 50.2462 85.2977C50.2841 85.395 50.3026 85.4989 50.3005 85.6034C50.3005 85.6606 50.1894 91.2262 50.9354 94.6534C51.1989 95.8531 51.5703 97.0623 51.8877 98.2334C52.5671 100.556 53.2115 102.749 53.0528 104.579C53.0345 104.777 52.9429 104.961 52.796 105.094C52.6491 105.228 52.4576 105.302 52.2592 105.301Z" fill="white" stroke="#263238" stroke-linecap="round" stroke-linejoin="round"/>
<path d="M25.2756 100.833V126.322L52.4814 134.446V106.51L25.2756 100.833Z" fill="#C2C2C2" stroke="#263238" stroke-linecap="round" stroke-linejoin="round"/>
<path d="M52.4814 106.51L60.0305 104.171V131.777L52.4814 134.446V106.51Z" fill="#787878" stroke="#263238" stroke-linecap="round" stroke-linejoin="round"/>
<path d="M57.3956 104.83L60.0305 104.171L68.4398 105.816L65.6939 106.622L57.3956 104.83Z" fill="white" stroke="#263238" stroke-linecap="round" stroke-linejoin="round"/>
<path d="M58.0528 73.5207H56.1989V81.0433H58.0528V73.5207Z" fill="#263238" stroke="#263238" stroke-linecap="round" stroke-linejoin="round"/>
<path d="M59.3638 85.9152V105.174L65.6938 106.622V84.916L59.3638 85.9152Z" fill="#C2C2C2" stroke="#263238" stroke-linecap="round" stroke-linejoin="round"/>
<path d="M65.6938 106.622L67.5986 105.956V85.0115L65.6938 84.916V106.622Z" fill="#787878" stroke="#263238" stroke-linecap="round" stroke-linejoin="round"/>
<path d="M65.697 106.695L65.6939 106.622L59.3638 105.174L57.3956 104.83V137.835L65.697 140.779V106.695Z" fill="#C2C2C2" stroke="#263238" stroke-linecap="round" stroke-linejoin="round"/>
<path d="M65.697 140.779L68.3001 139.882L68.4398 105.816L65.6938 106.622L65.697 140.779Z" fill="#787878" stroke="#263238" stroke-linecap="round" stroke-linejoin="round"/>
<path d="M45.5863 53.9663L40.6404 74.294L58.3987 76.8938L63.5002 55.411L45.5863 53.9663Z" fill="#787878" stroke="#263238" stroke-linecap="round" stroke-linejoin="round"/>
<path d="M46.4244 55.4492L42.1198 73.1484L57.5797 75.4141L62.0241 56.7061L46.4244 55.4492Z" fill="#263238" stroke="#263238" stroke-linecap="round" stroke-linejoin="round"/>
<path d="M63.5003 55.411L64.3415 56.2957L59.5099 77.1165L58.3988 76.8938L63.5003 55.411Z" fill="#787878" stroke="#263238" stroke-linecap="round" stroke-linejoin="round"/>
<path d="M57.9924 56.3816L53.5862 74.8286L57.5797 75.4141L62.0241 56.7061L57.9924 56.3816Z" fill="#5B81CA" stroke="#263238" stroke-linecap="round" stroke-linejoin="round"/>
<path d="M36.4151 77.5048L71.1794 82.3194L50.5322 86.7489L19.1298 81.4538L36.4151 77.5048Z" fill="#C2C2C2" stroke="#263238" stroke-linecap="round" stroke-linejoin="round"/>
<path d="M35.2311 78.924L45.1451 80.9129L39.8976 83.3695L29.282 81.4984L35.2311 78.924Z" fill="#263238" stroke="#263238" stroke-linecap="round" stroke-linejoin="round"/>
<path d="M50.5322 86.7489V87.9041L71.1794 84.6296V82.3194L50.5322 86.7489Z" fill="#787878" stroke="#263238" stroke-linecap="round" stroke-linejoin="round"/>
<path d="M21.7582 138.036C22.1092 138.371 22.5057 138.655 22.936 138.879C23.355 139.022 24.6153 139.092 24.755 139.652C24.8947 140.212 24.8947 140.986 23.2153 141.899C21.536 142.812 19.6472 143.229 19.0884 143.512C18.716 143.683 18.3062 143.755 17.898 143.722L17.7107 142.408C17.7107 142.408 19.3678 141.546 20.0694 140.212C20.5028 139.395 21.0742 138.658 21.7582 138.036Z" fill="white" stroke="#263238" stroke-linecap="round" stroke-linejoin="round"/>
<path d="M22.3804 99.6271C22.3804 99.6271 21.2376 117.842 20.8217 123.36C20.4059 128.878 21.1392 137.1 21.1392 137.1L21.7741 138.036C21.6594 138.835 21.4138 139.609 21.0471 140.327C20.4122 141.578 17.7234 142.408 17.7234 142.408C17.7234 142.408 16.9964 140.222 17.2028 138.453C17.4091 136.683 17.9297 112.534 17.9297 110.348C17.9297 108.162 17.6123 100.458 17.6123 100.458L22.3804 99.6271Z" fill="#5B81CA" stroke="#263238" stroke-linecap="round" stroke-linejoin="round"/>
<path d="M8.98389 99.729L10.8537 118.987C10.8537 118.987 10.1267 128.356 10.6442 131.481C11.1616 134.606 11.787 144.177 11.787 144.177C11.787 144.177 11.6854 148.55 11.6854 149.072C11.6854 149.594 12.0029 150.112 13.4505 150.112H16.1488C16.1488 150.112 19.8884 150.835 21.2376 150.835C22.5868 150.835 24.4439 150.007 24.9772 149.59C25.5105 149.173 25.2946 148.136 23.4185 147.407C21.5423 146.679 20.1995 145.743 19.9995 145.425C19.7995 145.107 20.5201 142.822 20.5201 142.822C20.5201 142.822 19.3646 141.473 19.3646 141.161V138.036C19.3646 138.036 19.8852 128.149 19.7805 123.983C19.6757 119.818 21.3392 101.072 21.3392 101.072L21.2344 99.6176L8.98389 99.729Z" fill="#5B81CA" stroke="#263238" stroke-linecap="round" stroke-linejoin="round"/>
<path d="M17.2028 142.195C17.4535 141.979 17.6916 141.762 17.9075 141.559" stroke="#263238" stroke-linecap="round" stroke-linejoin="round"/>
<path d="M13.3076 145.333C13.3076 145.333 14.7806 144.225 16.2314 143.022" stroke="#263238" stroke-linecap="round" stroke-linejoin="round"/>
<path d="M14.9362 141.819C16.152 140.298 18.0789 136.76 18.4281 129.409" stroke="#263238" stroke-linecap="round" stroke-linejoin="round"/>
<path d="M13.933 142.815C14.0331 142.749 14.1276 142.675 14.2155 142.593" stroke="#263238" stroke-linecap="round" stroke-linejoin="round"/>
<path d="M9.22836 101.925C9.22836 101.925 13.5172 103.917 16.3393 104.022C17.8393 104.096 19.3427 104.061 20.8376 103.917L22.1075 103.28L22.3932 101.597L8.80933 100.556L9.22836 101.925Z" fill="#263238" stroke="#263238" stroke-linecap="round" stroke-linejoin="round"/>
<path d="M16.1488 150.112C16.1488 150.112 19.8884 150.835 21.2376 150.835C22.5868 150.835 24.4439 150.007 24.9772 149.59C25.5105 149.173 25.2947 148.136 23.4185 147.407C21.5424 146.679 20.1995 145.743 19.9995 145.425C19.9995 145.425 16.679 146.987 14.8092 147.299C13.7845 147.407 12.7514 147.407 11.7267 147.299C11.7076 148.136 11.6918 148.862 11.6918 149.056C11.6918 149.574 12.0092 150.096 13.46 150.096L16.1488 150.112Z" fill="white" stroke="#263238" stroke-linecap="round" stroke-linejoin="round"/>
<path d="M53.0148 81.4093C52.9627 81.6092 52.983 81.8211 53.0719 82.0075C53.2211 82.3798 53.3703 82.5262 52.7037 82.749C52.037 82.9717 50.4116 83.2677 49.3736 83.4904C48.3355 83.7132 47.672 83.7863 47.3038 83.4904C46.9355 83.1945 47.3768 82.6758 47.599 82.6026C47.8212 82.5294 50.2624 81.2661 51.0021 81.0433C51.7418 80.8206 53.0148 81.4093 53.0148 81.4093Z" fill="#263238" stroke="#263238" stroke-linecap="round" stroke-linejoin="round"/>
<path d="M13.168 51.5701C13.168 51.5701 8.98393 57.0498 8.57124 61.4157C8.15855 65.7817 9.60931 76.0951 9.60931 76.5087C9.60931 76.9224 6.49509 88.1682 6.39033 92.3336C6.34058 95.0121 6.47955 97.6907 6.8062 100.35C6.8062 100.35 9.92042 102.119 14.5933 102.326C19.2662 102.532 22.3836 101.597 22.3836 101.597L24.8725 100.875C24.8725 100.875 25.5074 90.7776 25.5074 81.8261C25.5074 72.8747 25.5074 67.045 24.4693 63.8151C23.4312 60.5852 20.9392 55.3855 20.9392 55.3855L13.168 51.5701Z" fill="white" stroke="#263238" stroke-linecap="round" stroke-linejoin="round"/>
<path d="M24.0249 37.3713C24.3328 37.8149 24.5576 38.3109 24.6884 38.8351C24.7995 39.5129 24.6884 40.5853 24.9709 40.9799C25.2535 41.3745 26.3201 42.1095 25.9836 42.571C25.6471 43.0324 25.3646 43.4747 25.3646 43.4747C25.3646 43.4747 25.1392 45.6768 25.0249 46.4659C24.9106 47.2551 24.9138 47.5956 24.1805 47.7643C23.4471 47.9329 21.59 47.8215 21.59 47.8215C21.4723 48.7999 21.2596 49.7644 20.9551 50.7014C20.5043 51.9997 20.0028 53.524 20.0028 53.524L14.1458 50.7555C14.3668 49.9233 14.4987 49.0699 14.5394 48.2098C14.5589 47.6546 14.4826 47.1001 14.314 46.5709C14.314 46.5709 13.3616 43.5797 16.1171 40.9258C18.8726 38.2719 24.0249 37.3713 24.0249 37.3713Z" fill="white" stroke="#263238" stroke-linecap="round" stroke-linejoin="round"/>
<path d="M24.6408 40.703C24.6408 41.0754 24.5138 41.3745 24.3519 41.3745C24.19 41.3745 24.0662 41.0754 24.0662 40.703C24.0662 40.3307 24.1931 40.0284 24.3519 40.0284C24.5106 40.0284 24.6408 40.3307 24.6408 40.703Z" fill="#263238"/>
<path d="M23.8599 39.7261C23.8599 39.7261 24.1773 39.0611 24.5233 39.3729" stroke="#263238" stroke-linecap="round" stroke-linejoin="round"/>
<path d="M25.2281 44.3243C25.2281 44.3243 24.9106 44.6807 23.9932 44.1048" stroke="#263238" stroke-linecap="round" stroke-linejoin="round"/>
<path d="M15.3616 33.2822C15.3616 33.2822 12.4061 33.6005 11.1839 36.248C9.96168 38.8956 9.65375 41.6577 10.8664 44.4198C12.0791 47.1819 13.8219 48.7094 15.9457 47.9966C18.0694 47.2838 19.0028 45.1326 18.8028 44.318C18.6028 43.5033 18.4853 42.7842 18.4853 42.7842L20.0154 41.6609C20.0154 41.6609 20.7297 42.7842 21.2376 42.1732C21.7455 41.5622 21.444 40.5376 21.444 40.5376L22.5646 39.3124C22.9556 39.1491 23.2948 38.8821 23.5459 38.5401C23.797 38.1981 23.9505 37.7941 23.9899 37.3713C24.1931 35.8375 24.1931 33.4891 22.9709 33.2822C22.6143 33.2218 22.2491 33.2361 21.8983 33.3243C21.5475 33.4124 21.2188 33.5726 20.9329 33.7946C20.9329 33.7946 16.5838 32.5694 15.3616 33.2822Z" fill="#263238" stroke="#263238" stroke-linecap="round" stroke-linejoin="round"/>
<path d="M10.7141 44.2193C11.9151 44.2193 12.8887 43.1066 12.8887 41.7341C12.8887 40.3615 11.9151 39.2488 10.7141 39.2488C9.51313 39.2488 8.53955 40.3615 8.53955 41.7341C8.53955 43.1066 9.51313 44.2193 10.7141 44.2193Z" fill="#263238" stroke="#263238" stroke-linecap="round" stroke-linejoin="round"/>
<path d="M21.1963 42.6187C21.1963 42.6187 20.1265 40.9226 19.1107 41.3681C18.0948 41.8136 18.3805 43.2329 19.2821 44.2321C20.1837 45.2313 21.0821 45.419 21.3075 44.9671" fill="white"/>
<path d="M21.1963 42.6187C21.1963 42.6187 20.1265 40.9226 19.1107 41.3681C18.0948 41.8136 18.3805 43.2329 19.2821 44.2321C20.1837 45.2313 21.0821 45.419 21.3075 44.9671" stroke="#263238" stroke-linecap="round" stroke-linejoin="round"/>
<path d="M13.7807 49.5558C13.7807 49.5558 20.6821 53.4985 21.0313 53.9377C21.3805 54.3768 21.1202 56.652 21.1202 56.652L13.168 51.5606L13.7807 49.5558Z" fill="white" stroke="#263238" stroke-linecap="round" stroke-linejoin="round"/>
<path d="M19.3646 58.5072C21.3392 59.8597 29.8406 75.1627 29.8406 75.1627L44.2752 81.3043C44.2752 81.3043 46.2498 79.7418 46.9768 79.64C47.7037 79.5382 49.8846 79.535 50.1957 79.535C50.5068 79.535 52.2719 80.6806 52.2719 80.6806C52.2719 80.6806 53.4147 81.0974 52.9988 81.4093C52.583 81.7211 51.2338 81.8261 51.2338 81.8261L48.4307 82.9717C48.4307 82.9717 46.3514 83.4904 45.6244 83.4904H44.8974C44.8974 83.4904 28.5962 80.9924 28.0724 80.9924C27.6692 80.9924 19.9646 71.6687 16.5203 67.4809" fill="white"/>
<path d="M19.3646 58.5072C21.3392 59.8597 29.8406 75.1627 29.8406 75.1627L44.2752 81.3043C44.2752 81.3043 46.2498 79.7418 46.9768 79.64C47.7037 79.5382 49.8846 79.535 50.1957 79.535C50.5068 79.535 52.2719 80.6806 52.2719 80.6806C52.2719 80.6806 53.4147 81.0974 52.9988 81.4093C52.583 81.7211 51.2338 81.8261 51.2338 81.8261L48.4307 82.9717C48.4307 82.9717 46.3514 83.4904 45.6244 83.4904H44.8974C44.8974 83.4904 28.5962 80.9924 28.0724 80.9924C27.6692 80.9924 19.9646 71.6687 16.5203 67.4809" stroke="#263238" stroke-linecap="round" stroke-linejoin="round"/>
<path d="M48.745 81.4379L50.7227 80.8715L52.2878 80.6806" stroke="#263238" stroke-linecap="round" stroke-linejoin="round"/>
<path d="M48.4053 80.5883C48.4053 80.5883 49.9925 80.2478 50.1576 80.1905C50.4967 80.1614 50.8376 80.1614 51.1766 80.1905" stroke="#263238" stroke-linecap="round" stroke-linejoin="round"/>
<path d="M47.7831 79.9646L50.2116 79.535" stroke="#263238" stroke-linecap="round" stroke-linejoin="round"/>
<path d="M31.9898 74.6758L34.5929 74.0012L37.0277 75.0131L38.888 76.286C38.888 76.286 39.3007 76.8238 39.1356 76.9892C38.9706 77.1547 38.5007 77.0306 38.3515 76.9065C38.0675 76.7068 37.7694 76.5281 37.4595 76.3719C37.3357 76.3305 36.4722 75.9168 36.4722 75.9168L35.7294 75.8341C35.7294 75.8341 36.8817 76.9924 36.9992 77.0338C37.1166 77.0752 38.0722 77.6925 37.9896 77.8993C37.9673 77.9685 37.9308 78.0321 37.8824 78.0863C37.8341 78.1405 37.775 78.1839 37.709 78.2139C37.643 78.2438 37.5714 78.2596 37.4989 78.2603C37.4264 78.2609 37.3546 78.2463 37.2881 78.2175C36.9166 78.0521 36.2182 77.6384 35.8881 77.5143C35.5579 77.3902 35.1072 77.2661 34.6532 77.142C34.1813 76.9443 33.7373 76.6854 33.3326 76.3719L31.7675 76.4133L30.8152 75.1754L31.9898 74.6758Z" fill="white" stroke="#263238" stroke-linecap="round" stroke-linejoin="round"/>
<path d="M13.7425 67.9805C13.7425 67.9805 26.6375 81.0974 28.0914 80.9924C29.5453 80.8874 42.4213 84.531 42.4213 84.531L43.0562 80.0569L30.158 73.9153C30.158 73.9153 20.917 58.9241 20.3963 58.3004C19.8757 57.6767 18.1234 56.6425 16.2536 56.5311C14.3838 56.4197 12.8251 57.7785 12.8251 57.7785" fill="white"/>
<path d="M13.7425 67.9805C13.7425 67.9805 26.6375 81.0974 28.0914 80.9924C29.5453 80.8874 42.4213 84.531 42.4213 84.531L43.0562 80.0569L30.158 73.9153C30.158 73.9153 20.917 58.9241 20.3963 58.3004C19.8757 57.6767 18.1234 56.6425 16.2536 56.5311C14.3838 56.4197 12.8251 57.7785 12.8251 57.7785" stroke="#263238" stroke-linecap="round" stroke-linejoin="round"/>
<path d="M13.8663 88.06C13.8663 88.06 19.6789 89.0528 22.8915 87.6877" stroke="#263238" stroke-linecap="round" stroke-linejoin="round"/>
<path d="M13.8663 91.0353C13.8663 91.0353 19.6789 92.025 22.8915 90.663" stroke="#263238" stroke-linecap="round" stroke-linejoin="round"/>
</g>
<defs>
<clipPath id="clip0_50_824">
<rect width="148" height="151" fill="white"/>
</clipPath>
</defs>
</svg>
