<svg width="330" height="120" viewBox="0 0 330 120" fill="none" xmlns="http://www.w3.org/2000/svg">
<path d="M-42.3289 59.9087C-49.9159 54.6077 -53.6501 45.3934 -52.9072 33.8058C-52.1643 22.2182 -46.9894 8.95944 -38.2474 -3.75433C-29.5054 -16.4681 -17.726 -27.8665 -4.87813 -36.0444C7.96974 -44.2223 21.1076 -48.6841 32.3396 -48.6841C43.5716 -48.6841 52.217 -44.2223 56.831 -36.0444C61.4449 -27.8665 61.7477 -16.4681 57.6888 -3.75433C53.6299 8.95944 45.4553 22.2182 34.5312 33.8058C23.607 45.3934 10.5954 54.6077 -2.32889 59.9087C-10.9277 64.3751 -18.0598 71.4505 -22.5982 80.0169C-27.1365 88.5832 -28.8224 98.152 -27.3893 107.211C-25.9562 116.27 -21.4859 124.303 -14.6848 130.041C-7.88372 135.779 0.860375 138.893 10.1658 138.893C19.4712 138.893 28.8072 135.779 36.6987 130.041C44.5902 124.303 50.5871 116.27 53.7419 107.211C56.8966 98.152 57.0293 88.5832 54.1189 80.0169C51.2086 71.4505 45.4211 64.3751 37.6711 59.9087C29.9211 55.4422 24.1337 48.3668 21.2233 39.8005C18.3129 31.2341 18.4456 21.6654 21.6003 12.6061C24.7551 3.54694 30.752 -4.48612 38.6435 -10.2237C46.535 -15.9612 55.8711 -19.0761 65.1765 -19.0761C74.4818 -19.0761 83.2259 -15.9612 90.027 -10.2237C96.8281 -4.48612 101.298 3.54694 102.732 12.6061C104.165 21.6654 102.479 31.2341 97.9404 39.8005C93.402 48.3668 86.27 55.4422 77.6711 59.9087C64.0163 65.4663 49.8932 75.2393 37.6767 87.5843C25.4602 99.9293 15.8955 114.093 10.5907 127.695C5.286 141.296 4.56484 153.505 8.54852 162.269C12.5322 171.033 20.9778 175.817 32.465 175.817C43.9523 175.817 57.7807 171.033 71.625 162.269C85.4692 153.505 98.4849 141.296 108.483 127.695C118.482 114.093 124.854 99.9293 126.527 87.5843C128.2 75.2393 125.073 65.4663 117.671 59.9087C110.269 54.351 107.142 44.578 108.815 32.233C110.489 19.888 116.86 5.72401 126.859 -7.87737C136.857 -21.4788 149.873 -33.6879 163.717 -42.4519C177.561 -51.2158 191.39 -56 202.877 -56C214.364 -56 222.81 -51.2158 226.794 -42.4519C230.777 -33.6879 230.056 -21.4788 224.751 -7.87737C219.447 5.72401 209.882 19.888 197.666 32.233C185.449 44.578 171.326 54.351 157.671 59.9087C148.627 64.4166 140.942 71.639 135.84 80.4256C130.737 89.2122 128.51 99.0579 129.514 108.395C130.518 117.732 134.694 126.023 141.378 131.949C148.062 137.875 156.869 141.094 166.398 141.094C175.926 141.094 185.628 137.875 193.957 131.949C202.287 126.023 208.766 117.732 212.363 108.395C215.96 99.0579 216.467 89.2122 213.805 80.4256C211.142 71.639 205.463 64.4166 197.671 59.9087C189.879 55.4007 184.2 48.1784 181.538 39.3918C178.875 30.6052 179.383 20.7595 182.979 11.4225C186.576 2.08543 193.055 -6.20605 201.385 -12.1317C209.715 -18.0574 219.416 -21.2765 228.944 -21.2765C238.473 -21.2765 247.28 -18.0574 253.964 -12.1317C260.648 -6.20605 264.825 2.08543 265.828 11.4225C266.832 20.7595 264.605 30.6052 259.503 39.3918C254.4 48.1784 246.715 55.4007 237.671 59.9087C225.906 64.8793 214.585 73.3405 205.58 83.8942C196.575 94.4478 190.424 106.462 188.144 117.952C185.864 129.442 187.592 139.719 193.041 147.086C198.49 154.452 207.335 158.468 218.114 158.468C228.892 158.468 240.96 154.452 252.323 147.086C263.685 139.719 273.662 129.442 280.605 117.952C287.549 106.462 291.042 94.4478 290.508 83.8942C289.975 73.3405 285.446 64.8793 277.671 59.9087C269.896 54.938 265.367 46.4768 264.834 35.9232C264.3 25.3695 267.794 13.3551 274.737 1.86539C281.68 -9.62434 291.657 -19.9017 303.019 -27.2684C314.382 -34.6351 326.45 -38.6502 337.229 -38.6502C348.007 -38.6502 356.852 -34.6351 362.301 -27.2684C367.751 -19.9017 369.478 -9.62434 367.198 1.86539C364.918 13.3551 358.767 25.3695 349.762 35.9232C340.757 46.4768 329.436 54.938 317.671 59.9087C304.397 65.3276 290.858 74.8007 279.324 86.74C267.789 98.6793 258.96 112.359 254.318 125.486C249.675 138.612 249.5 150.388 253.822 158.839C258.145 167.29 266.702 171.902 278.059 171.902C289.416 171.902 302.883 167.29 316.202 158.839C329.521 150.388 341.882 138.612 351.213 125.486C360.545 112.359 366.279 98.6793 367.455 86.74C368.63 74.8007 365.176 65.3276 357.671 59.9087" stroke="#4C75F2" stroke-opacity="0.14" stroke-width="2"/>
</svg>
