<svg width="330" height="120" viewBox="0 0 330 120" fill="none" xmlns="http://www.w3.org/2000/svg">
<path d="M-126.854 60.5C-138.278 62.999 -149.059 67.9893 -157.282 74.5841C-165.505 81.1789 -170.636 88.9509 -171.764 96.5188C-172.893 104.087 -169.944 110.96 -163.444 115.918C-156.943 120.876 -147.311 123.596 -136.26 123.596C-125.208 123.596 -113.453 120.876 -103.084 115.918C-92.7145 110.96 -84.4025 104.087 -79.6251 96.5188C-74.8477 88.9509 -73.9144 81.1789 -76.991 74.5841C-80.0676 67.9893 -86.9549 62.999 -96.4288 60.5C-107.051 58.1639 -114.498 53.1643 -117.415 46.4109C-120.332 39.6575 -118.524 31.5992 -112.321 23.7025C-106.117 15.8057 -95.9311 8.59549 -83.6154 3.38382C-71.2997 -1.82785 -57.6732 -4.69453 -45.2157 -4.69453C-32.7582 -4.69453 -22.2977 -1.82785 -15.7378 3.38382C-9.17786 8.59549 -6.9546 15.8057 -9.47255 23.7025C-11.9905 31.5992 -19.0823 39.6575 -29.4574 46.4109C-39.8325 53.1643 -52.8013 58.1639 -66.0037 60.5C-79.2061 62.836 -92.1749 67.8357 -102.55 74.5891C-112.925 81.3425 -120.017 89.4008 -122.535 97.2975C-125.053 105.194 -122.83 112.405 -116.27 117.616C-109.71 122.828 -99.2492 125.695 -86.7917 125.695C-74.3342 125.695 -60.7077 122.828 -48.392 117.616C-36.0763 112.405 -25.89 105.194 -19.6868 97.2975C-13.4836 89.4008 -11.6758 81.3425 -14.5924 74.5891C-17.509 67.8357 -24.9562 62.836 -35.5786 60.5C-46.0967 58.1507 -53.4973 53.1535 -56.4364 46.416C-59.3755 39.6784 -57.658 31.6475 -51.596 23.7818C-45.534 15.9161 -35.5296 8.73727 -23.3997 3.54927C-11.2698 -1.63873 2.18099 -4.49183 14.5096 -4.49183C26.8382 -4.49183 37.2269 -1.63873 43.7889 3.54927C50.3509 8.73727 52.6509 15.9161 50.2711 23.7818C47.8913 31.6475 40.9897 39.6784 30.8197 46.416C20.6497 53.1535 7.88585 58.1507 -5.15353 60.5C-18.1929 62.8493 -30.9567 67.8465 -41.1267 74.584C-51.2967 81.3216 -58.1984 89.3525 -60.5781 97.2182C-62.9579 105.084 -60.6579 112.263 -54.096 117.451C-47.534 122.639 -37.1453 125.492 -24.8167 125.492C-12.4881 125.492 0.962679 122.639 13.0926 117.451C25.2225 112.263 35.227 105.084 41.289 97.2182C47.351 89.3525 49.0684 81.3216 46.1293 74.584C43.1902 67.8465 35.7896 62.8493 25.2716 60.5C17.2533 57.7314 11.2081 52.7008 8.16891 46.2677C5.12975 39.8347 5.28525 32.3984 8.60884 25.2297C11.9324 18.0609 18.2178 11.6046 26.3911 6.96379C34.5643 2.32301 44.1181 -0.21414 53.4199 -0.21414C62.7218 -0.21414 71.1944 2.32301 77.3901 6.96379C83.5858 11.6046 87.12 18.0609 87.3888 25.2297C87.6576 32.3984 84.6444 39.8347 78.864 46.2677C73.0836 52.7008 64.8947 57.7314 55.6966 60.5C46.4986 63.2686 38.3097 68.2992 32.5293 74.7323C26.7489 81.1653 23.7356 88.6016 24.0045 95.7703C24.2733 102.939 27.8075 109.395 34.0032 114.036C40.1989 118.677 48.6715 121.214 57.9734 121.214C67.2753 121.214 76.829 118.677 85.0022 114.036C93.1755 109.395 99.4609 102.939 102.784 95.7703C106.108 88.6016 106.264 81.1653 103.224 74.7323C100.185 68.2992 94.14 63.2686 86.1217 60.5C77.9763 57.7582 71.8523 52.7333 68.8004 46.2874C65.7485 39.8414 65.959 32.3762 69.3956 25.1724C72.8322 17.9685 79.2809 11.4752 87.6352 6.80624C95.9896 2.13729 105.729 -0.416216 115.182 -0.416216C124.636 -0.416216 133.214 2.13729 139.446 6.80624C145.677 11.4752 149.174 17.9685 149.335 25.1724C149.496 32.3762 146.313 39.8414 140.33 46.2874C134.347 52.7333 125.939 57.7582 116.547 60.5C107.155 63.2418 98.7462 68.2667 92.7636 74.7126C86.781 81.1586 83.5973 88.6238 83.7587 95.8276C83.92 103.031 87.4164 109.525 93.648 114.194C99.8796 118.863 108.458 121.416 117.911 121.416C127.365 121.416 137.104 118.863 145.458 114.194C153.813 109.525 160.261 103.031 163.698 95.8276C167.135 88.6238 167.345 81.1586 164.293 74.7126C161.241 68.2667 155.117 63.2418 146.972 60.5C136.719 58.1157 129.441 53.1232 126.453 46.4247C123.464 39.7261 124.962 31.7634 130.675 23.9754C136.389 16.1873 145.942 9.0876 157.608 3.95916C169.273 -1.16928 182.282 -3.98819 194.284 -3.98819C206.286 -3.98819 216.489 -1.16928 223.049 3.95916C229.609 9.0876 232.094 16.1873 230.054 23.9754C228.015 31.7634 221.586 39.7261 211.929 46.4247C202.271 53.1232 190.023 58.1157 177.397 60.5C164.771 62.8843 152.523 67.8768 142.865 74.5753C133.208 81.2739 126.779 89.2366 124.74 97.0246C122.7 104.813 125.185 111.912 131.745 117.041C138.306 122.169 148.508 124.988 160.51 124.988C172.512 124.988 185.521 122.169 197.186 117.041C208.852 111.912 218.405 104.813 224.119 97.0246C229.832 89.2366 231.33 81.2739 228.341 74.5753C225.353 67.8768 218.075 62.8843 207.822 60.5C198.177 58.0278 191.2 53.0385 188.136 46.4221C185.071 39.8058 186.119 31.9928 191.092 24.3773C196.065 16.7617 204.64 9.83888 215.286 4.84398C225.933 -0.150913 237.959 -2.89297 249.218 -2.89297C260.477 -2.89297 270.238 -0.150913 276.758 4.84398C283.279 9.83888 286.135 16.7617 284.817 24.3773C283.499 31.9928 278.093 39.8058 269.563 46.4221C261.033 53.0385 249.934 58.0278 238.247 60.5C226.56 62.9722 215.461 67.9615 206.931 74.5779C198.402 81.1942 192.995 89.0072 191.677 96.6227C190.36 104.238 193.216 111.161 199.736 116.156C206.256 121.151 216.017 123.893 227.276 123.893C238.536 123.893 250.562 121.151 261.208 116.156C271.855 111.161 280.429 104.238 285.402 96.6227C290.375 89.0072 291.423 81.1942 288.359 74.5779C285.294 67.9615 278.317 62.9722 268.672 60.5C257.895 58.183 250.381 53.1792 247.501 46.4016C244.621 39.624 246.566 31.5246 252.983 23.5815C259.401 15.6383 269.861 8.38101 282.455 3.13397C295.05 -2.11306 308.939 -5 321.588 -5C334.237 -5 344.802 -2.11306 351.356 3.13397C357.91 8.38101 360.015 15.6383 357.288 23.5815C354.56 31.5246 347.182 39.624 336.499 46.4016C325.817 53.1792 312.542 58.183 299.097 60.5C285.653 62.817 272.378 67.8208 261.695 74.5984C251.013 81.376 243.634 89.4754 240.907 97.4185C238.18 105.362 240.285 112.619 246.839 117.866C253.393 123.113 263.958 126 276.607 126C289.256 126 303.145 123.113 315.74 117.866C328.334 112.619 338.794 105.362 345.211 97.4185C351.628 89.4754 353.574 81.376 350.694 74.5984C347.814 67.8208 340.3 62.817 329.522 60.5C319.163 58.13 311.835 53.1359 308.865 46.4219C305.895 39.7079 307.479 31.7179 313.332 23.8987C319.184 16.0796 328.917 8.94816 340.768 3.79582C352.619 -1.35651 365.805 -4.18914 377.939 -4.18914C390.072 -4.18914 400.35 -1.35651 406.912 3.79582C413.475 8.94816 415.887 16.0796 413.712 23.8987C411.537 31.7179 404.92 39.7079 395.057 46.4219C385.195 53.1359 372.74 58.13 359.948 60.5C347.155 62.87 334.7 67.8641 324.838 74.5781C314.975 81.2921 308.358 89.2821 306.183 97.1013C304.009 104.92 306.421 112.052 312.983 117.204C319.545 122.357 329.823 125.189 341.956 125.189C354.09 125.189 367.276 122.357 379.127 117.204C390.978 112.052 400.711 104.92 406.564 97.1013C412.416 89.2821 414 81.2921 411.03 74.5781C408.06 67.8641 400.732 62.87 390.373 60.5C380.671 58.0365 373.665 53.0473 370.605 46.4236C367.546 39.8 368.633 31.9735 373.672 24.3421C378.71 16.7107 387.373 9.77161 398.112 4.7644C408.851 -0.242811 420.967 -2.99197 432.295 -2.99197C443.623 -2.99197 453.426 -0.242811 459.952 4.7644C466.478 9.77161 469.303 16.7107 467.921 24.3421C466.539 31.9735 461.041 39.8 452.408 46.4236C443.776 53.0473 432.572 58.0365 420.798 60.5C409.023 62.9635 397.819 67.9527 389.187 74.5763C380.555 81.2 375.057 89.0265 373.675 96.6579C372.293 104.289 375.117 111.228 381.643 116.236C388.17 121.243 397.972 123.992 409.3 123.992C420.629 123.992 432.745 121.243 443.483 116.236C454.222 111.228 462.885 104.289 467.924 96.6579C472.963 89.0265 474.05 81.2 470.99 74.5763C467.931 67.9527 460.924 62.9635 451.223 60.5C440.97 58.1157 433.692 53.1232 430.703 46.4247C427.715 39.7261 429.213 31.7634 434.926 23.9754C440.64 16.1873 450.193 9.0876 461.858 3.95916C473.524 -1.16928 486.533 -3.98819 498.535 -3.98819C510.537 -3.98819 520.739 -1.16928 527.3 3.95916C533.86 9.0876 536.345 16.1873 534.305 23.9754C532.266 31.7634 525.837 39.7261 516.18 46.4247C506.522 53.1232 494.274 58.1157 481.648 60.5" stroke="#F9D89D" stroke-opacity="0.4" stroke-width="2"/>
</svg>
