<svg width="330" height="120" viewBox="0 0 330 120" fill="none" xmlns="http://www.w3.org/2000/svg">
<path d="M-47.3526 197.046C-138.234 40.7765 68.8913 40.7765 -26.2174 197.046C-121.326 353.316 85.7995 501.608 -5.08212 197.046C-95.9637 -121.682 111.162 -121.682 16.0531 197.046C-79.0555 515.774 128.07 334.543 37.1884 197.046C-53.6932 53.1543 153.432 53.1543 58.3237 197.046C-36.785 340.938 170.341 357.459 79.4589 197.046C-11.4227 29.1723 195.703 29.1723 100.594 197.046C5.48552 364.92 212.611 295.364 121.729 197.046C30.8478 94.1557 237.973 94.1557 142.865 197.046C47.756 299.936 254.882 431.382 164 197.046C73.1184 -48.1889 280.244 -48.1889 185.135 197.046C90.0266 442.281 297.152 353.763 206.271 197.046C115.389 33.0403 322.514 33.0403 227.406 197.046C132.297 361.052 339.423 364.112 248.541 197.046C157.659 22.2098 364.785 22.2098 269.676 197.046C174.568 371.882 381.693 501.608 290.812 197.046C199.93 -121.682 407.056 -121.682 311.947 197.046C216.838 515.774 423.964 301.277 333.082 197.046C242.2 87.9668 449.326 87.9668 354.217 197.046C259.109 306.125 466.234 463.169 375.353 197.046" stroke="#FE7678" stroke-width="2"/>
</svg>
