<svg width="146" height="146" viewBox="0 0 146 146" fill="none" xmlns="http://www.w3.org/2000/svg">
<g clip-path="url(#clip0_256_58773)">
<path d="M0.868133 85.4002C-0.781382 77.4911 -0.0691155 69.2475 2.90984 61.7699C6.98267 51.3119 15.7313 43.8758 25.5379 39.5425C39.784 33.253 53.7727 33.1175 65.36 20.7693C68.9321 16.9597 71.9329 12.597 75.5861 8.86436C86.3483 -2.12481 102.104 -0.802449 113.864 7.92295C138.403 26.1247 147.229 62.1728 145.865 91.9754C145.251 105.349 139.105 117.8 129.376 126.573C107.372 146.419 70.0076 143.082 44.7454 132.723C25.8658 124.998 5.29359 106.976 0.868133 85.4002Z" fill="#BA68C8"/>
<path opacity="0.7" d="M-0.125921 85.4002C-1.78673 77.4911 -1.06959 69.2475 1.92977 61.7699C6.0305 51.3119 14.8391 43.8758 24.7128 39.5425C39.0565 33.253 53.141 33.1175 64.8076 20.7693C68.4042 16.9597 71.4256 12.597 75.1038 8.86436C85.9397 -2.12481 101.803 -0.802449 113.644 7.92295C138.351 26.1247 147.238 62.1728 145.864 91.9754C145.246 105.349 139.057 117.8 129.262 126.573C107.107 146.419 69.4871 143.082 44.0519 132.723C25.043 124.998 4.32985 106.976 -0.125921 85.4002Z" fill="white"/>
<path d="M70.8225 125.914C70.8254 127.356 70.4756 128.777 69.8036 130.053H67.8827C67.8257 130.053 67.7688 130.059 67.7129 130.07C67.5457 130.109 67.3966 130.203 67.2899 130.337C67.1832 130.472 67.1253 130.638 67.1257 130.81V133.138C65.5034 134.308 63.5345 134.899 61.5357 134.815C59.537 134.73 57.6248 133.976 56.1069 132.673C54.5889 131.37 53.5536 129.594 53.1675 127.631C52.7815 125.668 53.0671 123.632 53.9784 121.852C54.8898 120.071 56.3739 118.648 58.1918 117.813C60.0097 116.978 62.0557 116.779 64.0004 117.248C65.9451 117.717 67.6755 118.827 68.913 120.399C70.1504 121.971 70.823 123.913 70.8225 125.914V125.914Z" stroke="#263238" stroke-linecap="round" stroke-linejoin="round"/>
<path d="M64.0868 129.197C65.325 129.348 66.5417 129.641 67.7128 130.07C67.5456 130.109 67.3965 130.203 67.2898 130.337C67.1831 130.472 67.1252 130.638 67.1256 130.81V133.138C65.2174 134.515 62.8417 135.08 60.5176 134.711C58.1935 134.342 56.1101 133.068 54.7227 131.167C54.7722 131.08 54.8253 130.991 54.8819 130.902C55.2144 130.361 57.2203 129.487 60.0645 129.19C60.2446 128.741 60.3008 128.252 60.2272 127.775C60.2272 127.693 60.206 127.619 60.1954 127.545C60.0354 127.406 59.9022 127.24 59.8027 127.053C59.6571 126.688 59.5389 126.314 59.4489 125.931C59.456 126.016 59.4362 126.1 59.3924 126.172C59.1836 126.367 58.9926 126.03 58.9643 125.737C58.936 125.443 58.5716 124.93 58.4867 124.64C58.459 124.508 58.4677 124.371 58.512 124.243C58.5562 124.115 58.6343 124.002 58.7379 123.915C58.7725 123.899 58.8107 123.892 58.8487 123.896C58.8867 123.9 58.9229 123.914 58.9537 123.936C58.8269 123.425 58.7862 122.897 58.8334 122.373C58.8551 122.05 58.9459 121.737 59.0997 121.453C59.2536 121.169 59.4668 120.922 59.7249 120.728C59.7249 120.728 60.0786 119.705 62.0632 119.712C64.2176 119.712 64.4334 120.887 64.4334 120.887C64.4334 120.887 65.5478 121.63 65.1091 123.933C65.1377 123.911 65.1718 123.898 65.2074 123.895C65.2431 123.892 65.2789 123.899 65.3108 123.915C65.4153 124.001 65.4941 124.114 65.5384 124.242C65.5827 124.37 65.5909 124.508 65.5619 124.64C65.4806 124.93 65.1127 125.44 65.0844 125.737C65.0561 126.034 64.865 126.367 64.6563 126.172C64.6329 126.14 64.6183 126.102 64.6139 126.062C64.5256 126.44 64.4073 126.811 64.2601 127.17C64.1539 127.377 64.0028 127.558 63.8179 127.7C63.775 128.012 63.787 128.33 63.8533 128.638C63.8937 128.838 63.973 129.027 64.0868 129.197V129.197Z" stroke="#263238" stroke-linecap="round" stroke-linejoin="round"/>
<path d="M70.7163 130.053H67.8827C67.4646 130.053 67.1256 130.392 67.1256 130.81V133.643C67.1256 134.062 67.4646 134.4 67.8827 134.4H70.7163C71.1344 134.4 71.4733 134.062 71.4733 133.643V130.81C71.4733 130.392 71.1344 130.053 70.7163 130.053Z" stroke="#263238" stroke-linecap="round" stroke-linejoin="round"/>
<path d="M70.3802 131.977H69.5453V131.142H69.0501V131.977H68.2152V132.472H69.0501V133.307H69.5453V132.472H70.3802V131.977Z" fill="#263238"/>
<path d="M26.7632 46.3806C26.7655 48.3844 26.2798 50.3586 25.3482 52.1327H22.3766C22.1758 52.1327 21.9833 52.2125 21.8413 52.3544C21.6993 52.4964 21.6196 52.689 21.6196 52.8897V56.4273C19.3648 58.0519 16.6292 58.8706 13.8527 58.7519C11.0763 58.6332 8.42046 57.5839 6.31264 55.7729C4.20482 53.9618 2.76753 51.4943 2.23205 48.7674C1.69657 46.0405 2.09402 43.2127 3.36046 40.7391C4.6269 38.2654 6.68868 36.2898 9.21407 35.1299C11.7395 33.9701 14.5816 33.6936 17.2832 34.3448C19.9848 34.996 22.3888 36.5372 24.1083 38.7203C25.8279 40.9034 26.763 43.6016 26.7632 46.3806V46.3806Z" stroke="#263238" stroke-linecap="round" stroke-linejoin="round"/>
<path d="M20.6809 39.0499L5.76657 41.9516C5.23533 42.055 4.88848 42.5694 4.99183 43.1007L6.90719 52.9452C7.01055 53.4764 7.52499 53.8233 8.05622 53.7199L22.9706 50.8182C23.5018 50.7148 23.8487 50.2004 23.7453 49.6691L21.8299 39.8246C21.7266 39.2934 21.2121 38.9465 20.6809 39.0499Z" stroke="#263238" stroke-linecap="round" stroke-linejoin="round"/>
<path d="M5.06714 43.4726L13.147 47.8663C13.628 48.1268 14.1845 48.212 14.7214 48.1074C15.2583 48.0029 15.7422 47.7151 16.0903 47.2933L21.9203 40.1968" stroke="#263238" stroke-linecap="round" stroke-linejoin="round"/>
<path d="M8.14478 52.7553L13.1328 47.8663" stroke="#263238" stroke-linecap="round" stroke-linejoin="round"/>
<path d="M22.4545 49.9712L16.0762 47.2933" stroke="#263238" stroke-linecap="round" stroke-linejoin="round"/>
<path d="M26.9083 52.1327H22.3766C21.9585 52.1327 21.6196 52.4716 21.6196 52.8897V57.4214C21.6196 57.8395 21.9585 58.1785 22.3766 58.1785H26.9083C27.3264 58.1785 27.6653 57.8395 27.6653 57.4214V52.8897C27.6653 52.4716 27.3264 52.1327 26.9083 52.1327Z" stroke="#263238" stroke-linecap="round" stroke-linejoin="round"/>
<path d="M26.1478 54.8142H24.9874V53.6539H24.3011V54.8142H23.1408V55.5005H24.3011V56.6608H24.9874V55.5005H26.1478V54.8142Z" fill="#263238"/>
<path d="M138.383 63.806H127.133L127.352 63.4522C128.305 61.8812 128.788 60.0708 128.746 58.2342V58.213C128.75 57.6862 128.858 57.1653 129.063 56.6801C129.268 56.1949 129.567 55.7549 129.943 55.3852C130.318 55.0154 130.762 54.7233 131.251 54.5253C131.739 54.3273 132.261 54.2275 132.788 54.2314C133.315 54.2354 133.836 54.3431 134.321 54.5483C134.806 54.7536 135.246 55.0524 135.616 55.4277C135.986 55.803 136.278 56.2475 136.476 56.7357C136.674 57.2239 136.773 57.7463 136.77 58.2732C136.699 60.0563 137.156 61.8206 138.082 63.3461L138.383 63.806Z" stroke="#263238" stroke-linecap="round" stroke-linejoin="round"/>
<path d="M131.849 54.1235C131.669 53.9433 131.546 53.7139 131.497 53.4642C131.447 53.2144 131.473 52.9555 131.57 52.7203C131.668 52.4851 131.833 52.284 132.044 52.1426C132.256 52.0012 132.505 51.9257 132.76 51.9257C133.014 51.9257 133.263 52.0012 133.475 52.1426C133.687 52.284 133.852 52.4851 133.949 52.7203C134.047 52.9555 134.072 53.2144 134.023 53.4642C133.973 53.7139 133.851 53.9433 133.671 54.1235" stroke="#263238" stroke-linecap="round" stroke-linejoin="round"/>
<path d="M138.673 63.8094H126.847C126.583 63.8094 126.369 64.0233 126.369 64.287V64.4851C126.369 64.7489 126.583 64.9627 126.847 64.9627H138.673C138.936 64.9627 139.15 64.7489 139.15 64.4851V64.287C139.15 64.0233 138.936 63.8094 138.673 63.8094Z" stroke="#263238" stroke-linecap="round" stroke-linejoin="round"/>
<path d="M132.758 67.8848C133.301 67.8848 133.741 67.4444 133.741 66.9013C133.741 66.3582 133.301 65.9178 132.758 65.9178C132.215 65.9178 131.774 66.3582 131.774 66.9013C131.774 67.4444 132.215 67.8848 132.758 67.8848Z" stroke="#263238" stroke-linecap="round" stroke-linejoin="round"/>
<path d="M143.512 60.7565C143.515 62.4961 143.095 64.2102 142.288 65.7516H139.812C139.611 65.7516 139.419 65.8314 139.277 65.9733C139.135 66.1153 139.055 66.3079 139.055 66.5087V69.4802C137.097 70.8938 134.72 71.6074 132.307 71.5063C129.894 71.4051 127.586 70.495 125.753 68.9225C123.92 67.35 122.67 65.2066 122.203 62.8371C121.736 60.4677 122.08 58.0101 123.18 55.86C124.279 53.7098 126.07 51.9922 128.264 50.9834C130.459 49.9747 132.928 49.7336 135.276 50.2989C137.624 50.8642 139.713 52.2031 141.208 54.1C142.703 55.9969 143.515 58.3415 143.516 60.7565H143.512Z" stroke="#263238" stroke-linecap="round" stroke-linejoin="round"/>
<path d="M143.54 65.7516H139.808C139.39 65.7516 139.051 66.0905 139.051 66.5086V70.2408C139.051 70.6589 139.39 70.9979 139.808 70.9979H143.54C143.959 70.9979 144.298 70.6589 144.298 70.2408V66.5086C144.298 66.0905 143.959 65.7516 143.54 65.7516Z" stroke="#263238" stroke-linecap="round" stroke-linejoin="round"/>
<path d="M142.978 68.0794H141.973V67.0712H141.379V68.0794H140.371V68.6737H141.379V69.6784H141.973V68.6737H142.978V68.0794Z" fill="#263238"/>
<path d="M121.659 20.7787H34.5349C33.0435 20.7787 31.8345 21.9877 31.8345 23.4791V108.3C31.8345 109.791 33.0435 111 34.5349 111H121.659C123.151 111 124.36 109.791 124.36 108.3V23.4791C124.36 21.9877 123.151 20.7787 121.659 20.7787Z" fill="white"/>
<path d="M110.026 103.866H88.5782C87.2386 103.866 85.9538 103.334 85.0065 102.387C84.0593 101.44 83.5271 100.155 83.5271 98.8151V98.8151C83.5271 97.4754 84.0593 96.1907 85.0065 95.2434C85.9538 94.2961 87.2386 93.7639 88.5782 93.7639H110.026C111.366 93.7639 112.651 94.2961 113.598 95.2434C114.545 96.1907 115.077 97.4754 115.077 98.8151V98.8151C115.077 100.155 114.545 101.44 113.598 102.387C112.651 103.334 111.366 103.866 110.026 103.866V103.866Z" fill="#BA68C8" stroke="#263238" stroke-linecap="round" stroke-linejoin="round"/>
<path d="M93.8198 101.294H93L92.8601 100.354H91.8615L91.7217 101.294H90.9873L91.8149 96.1263H93.0039L93.8198 101.294ZM91.9664 99.6544H92.7435L92.355 97.0394L91.9664 99.6544Z" fill="white"/>
<path d="M96.5436 99.3668V100.051C96.5436 100.878 96.1317 101.352 95.3352 101.352C94.5387 101.352 94.1229 100.878 94.1229 100.051V97.3658C94.1229 96.5382 94.5348 96.068 95.3352 96.068C96.1356 96.068 96.5436 96.5382 96.5436 97.3658V97.867H95.7665V97.3153C95.7665 96.9462 95.6033 96.8063 95.343 96.8063C95.0826 96.8063 94.9233 96.9462 94.9233 97.3153V100.105C94.9233 100.474 95.0865 100.606 95.343 100.606C95.5994 100.606 95.7665 100.474 95.7665 100.105V99.3668H96.5436Z" fill="white"/>
<path d="M99.3955 99.3668V100.051C99.3955 100.878 98.9798 101.352 98.1832 101.352C97.3867 101.352 96.9749 100.878 96.9749 100.051V97.3658C96.9749 96.5382 97.3867 96.068 98.1832 96.068C98.9798 96.068 99.3955 96.5382 99.3955 97.3658V97.867H98.6184V97.3153C98.6184 96.9462 98.4552 96.8063 98.1988 96.8063C97.9423 96.8063 97.7792 96.9462 97.7792 97.3153V100.105C97.7792 100.474 97.9385 100.606 98.1988 100.606C98.4591 100.606 98.6184 100.474 98.6184 100.105V99.3668H99.3955Z" fill="white"/>
<path d="M100.701 98.3022H101.816V99.0404H100.701V100.556H102.104V101.294H99.889V96.1263H102.104V96.8723H100.701V98.3022Z" fill="white"/>
<path d="M105.014 97.4008V98.073C105.014 98.9006 104.625 99.3513 103.802 99.3513H103.413V101.294H102.601V96.1263H103.809C104.614 96.1263 105.014 96.577 105.014 97.4008ZM103.421 96.8723V98.6208H103.809C104.07 98.6208 104.198 98.5042 104.198 98.1351V97.358C104.198 96.9695 104.058 96.8723 103.809 96.8723H103.421Z" fill="white"/>
<path d="M105.154 96.1263H107.664V96.8723H106.817V101.302H106.005V96.8723H105.154V96.1263Z" fill="white"/>
<path d="M67.6082 103.866H46.1642C44.8245 103.866 43.5398 103.334 42.5925 102.387C41.6452 101.44 41.113 100.155 41.113 98.8151V98.8151C41.113 97.4754 41.6452 96.1907 42.5925 95.2434C43.5398 94.2961 44.8245 93.7639 46.1642 93.7639H67.6082C68.9479 93.7639 70.2327 94.2961 71.18 95.2434C72.1272 96.1907 72.6594 97.4754 72.6594 98.8151V98.8151C72.6594 100.155 72.1272 101.44 71.18 102.387C70.2327 103.334 68.9479 103.866 67.6082 103.866V103.866Z" fill="#BA68C8"/>
<path opacity="0.6" d="M67.6082 103.866H46.1642C44.8245 103.866 43.5398 103.334 42.5925 102.387C41.6452 101.44 41.113 100.155 41.113 98.8151V98.8151C41.113 97.4754 41.6452 96.1907 42.5925 95.2434C43.5398 94.2961 44.8245 93.7639 46.1642 93.7639H67.6082C68.9479 93.7639 70.2327 94.2961 71.18 95.2434C72.1272 96.1907 72.6594 97.4754 72.6594 98.8151V98.8151C72.6594 100.155 72.1272 101.44 71.18 102.387C70.2327 103.334 68.9479 103.866 67.6082 103.866V103.866Z" fill="white"/>
<path d="M67.6082 103.866H46.1642C44.8245 103.866 43.5398 103.334 42.5925 102.387C41.6452 101.44 41.113 100.155 41.113 98.8151V98.8151C41.113 97.4754 41.6452 96.1907 42.5925 95.2434C43.5398 94.2961 44.8245 93.7639 46.1642 93.7639H67.6082C68.9479 93.7639 70.2327 94.2961 71.18 95.2434C72.1272 96.1907 72.6594 97.4754 72.6594 98.8151V98.8151C72.6594 100.155 72.1272 101.44 71.18 102.387C70.2327 103.334 68.9479 103.866 67.6082 103.866V103.866Z" stroke="#263238" stroke-linecap="round" stroke-linejoin="round"/>
<path d="M48.002 96.1263H49.2881C50.1002 96.1263 50.4965 96.577 50.4965 97.4008V100.016C50.4965 100.843 50.108 101.294 49.2881 101.294H48.002V96.1263ZM48.8141 96.8646V100.556H49.2726C49.529 100.556 49.6844 100.42 49.6844 100.051V97.3658C49.6844 96.9967 49.529 96.8646 49.2726 96.8646H48.8141Z" fill="white"/>
<path d="M51.8254 98.3022H52.9405V99.0404H51.8254V100.556H53.228V101.294H51.0133V96.1263H53.228V96.8723H51.8254V98.3022Z" fill="white"/>
<path d="M56.0877 99.3668V100.051C56.0877 100.878 55.6759 101.352 54.8754 101.352C54.075 101.352 53.6671 100.878 53.6671 100.051V97.3658C53.6671 96.5382 54.0789 96.068 54.8754 96.068C55.672 96.068 56.0877 96.5382 56.0877 97.3658V97.867H55.3106V97.3153C55.3106 96.9462 55.1513 96.8063 54.891 96.8063C54.6307 96.8063 54.4714 96.9462 54.4714 97.3153V100.105C54.4714 100.474 54.6345 100.606 54.891 100.606C55.1474 100.606 55.3106 100.474 55.3106 100.105V99.3668H56.0877Z" fill="white"/>
<path d="M56.5812 96.1263H57.3932V100.556H58.7376V101.294H56.5889L56.5812 96.1263Z" fill="white"/>
<path d="M59.0873 96.1263H59.9033V101.294H59.0873V96.1263Z" fill="white"/>
<path d="M61.2282 97.5484V101.294H60.4977V96.1263H61.5157L62.3356 99.2347V96.1263H63.0583V101.294H62.2346L61.2282 97.5484Z" fill="white"/>
<path d="M64.4532 98.3022H65.5684V99.0404H64.4532V100.556H65.8559V101.294H63.6412V96.1263H65.8559V96.8723H64.4532V98.3022Z" fill="white"/>
<path d="M99.1468 61.5143C99.1468 65.6802 97.9114 69.7526 95.597 73.2164C93.2825 76.6803 89.9929 79.38 86.1441 80.9742C82.2953 82.5685 78.0601 82.9856 73.9743 82.1729C69.8884 81.3601 66.1353 79.354 63.1895 76.4083C60.2438 73.4625 58.2377 69.7094 57.4249 65.6235C56.6122 61.5377 57.0293 57.3025 58.6236 53.4537C60.2178 49.6049 62.9175 46.3153 66.3814 44.0008C69.8452 41.6863 73.9176 40.451 78.0835 40.451C80.8526 40.4402 83.5964 40.9777 86.1568 42.0324C88.7172 43.0871 91.0435 44.6382 93.0016 46.5962C94.9596 48.5543 96.5107 50.8806 97.5654 53.441C98.6201 56.0014 99.1576 58.7452 99.1468 61.5143V61.5143Z" fill="#E3C3E9" stroke="#263238" stroke-linecap="round" stroke-linejoin="round"/>
<path d="M95.5916 73.2291C93.7055 76.045 91.1676 78.3643 88.1936 79.9898C85.2195 81.6154 81.8971 82.4993 78.5085 82.5664C75.1199 82.6335 71.7651 81.8819 68.729 80.3754C65.6929 78.8689 63.0652 76.652 61.069 73.9129C61.1933 73.7031 61.3176 73.4933 61.4575 73.2874C62.2346 72.0013 66.9905 69.9653 73.7163 69.2348C75.2339 69.0678 76.7589 68.977 78.2856 68.9628C79.939 68.9472 81.5915 69.0432 83.2319 69.2503C89.0756 69.9808 93.9364 71.9158 95.5916 73.2291Z" fill="#757575" stroke="#263238" stroke-linecap="round" stroke-linejoin="round"/>
<path d="M83.7214 69.7477C83.1965 70.6765 82.4307 71.4464 81.5048 71.9764C80.5789 72.5064 79.5271 72.7767 78.4604 72.7589C75.352 72.7589 73.1023 70.0702 73.1023 70.0702C74.1902 69.0949 74.2679 67.2843 74.097 65.8583C74.0263 65.1595 73.8963 64.468 73.7084 63.7912H82.9792C82.4158 65.6446 82.4353 66.9734 82.6528 67.8982C82.9598 69.262 83.7214 69.7477 83.7214 69.7477Z" fill="white" stroke="#263238" stroke-width="0.5" stroke-linecap="round" stroke-linejoin="round"/>
<path d="M82.6334 67.8982C75.9348 69.6544 74.606 65.8272 74.606 65.8272L74.097 65.8583C74.0263 65.1595 73.8963 64.468 73.7084 63.7912H82.9792C82.3964 65.6446 82.4158 66.9734 82.6334 67.8982Z" fill="#263238"/>
<path d="M84.9764 57.283C84.9764 57.283 85.7224 56.4709 86.0915 56.739C86.3389 56.9413 86.5256 57.208 86.6312 57.5096C86.7368 57.8113 86.7571 58.1362 86.6899 58.4486C86.4917 59.1402 85.6252 60.3409 85.5553 61.0403C85.4854 61.7396 85.0424 62.5323 84.549 62.0699C84.0555 61.6075 84.9764 57.283 84.9764 57.283Z" fill="white" stroke="#263238" stroke-width="0.5" stroke-linecap="round" stroke-linejoin="round"/>
<path d="M71.6725 57.283C71.6725 57.283 70.9265 56.4709 70.5574 56.739C70.31 56.9413 70.1232 57.208 70.0177 57.5096C69.9121 57.8113 69.8918 58.1362 69.959 58.4486C70.1572 59.1402 71.0236 60.3409 71.0936 61.0403C71.1635 61.7396 71.6065 62.5323 72.0999 62.0699C72.5934 61.6075 71.6725 57.283 71.6725 57.283Z" fill="white" stroke="#263238" stroke-width="0.5" stroke-linecap="round" stroke-linejoin="round"/>
<path d="M78.1652 47.915C87.5564 47.915 85.3222 60.4186 83.6049 64.4323C82.9987 65.8427 79.8515 67.6922 78.3322 67.6922C76.9179 67.6922 73.6696 65.4814 73.1101 64.1564C71.3539 60.1155 69.2285 47.915 78.1652 47.915Z" fill="white" stroke="#263238" stroke-width="0.5" stroke-linecap="round" stroke-linejoin="round"/>
<path d="M79.7582 55.6278C79.7582 55.6278 82.2022 54.8701 82.9598 56.3815" stroke="#263238" stroke-width="0.5" stroke-linecap="round" stroke-linejoin="round"/>
<path d="M81.5688 57.6832C81.5688 57.9707 81.4212 58.2038 81.2424 58.2038C81.0637 58.2038 80.9122 57.9707 80.9122 57.6832C80.9122 57.3957 81.0598 57.1625 81.2424 57.1625C81.4251 57.1625 81.5688 57.3957 81.5688 57.6832Z" fill="#263238"/>
<path d="M76.8907 55.6278C76.8907 55.6278 74.4467 54.8701 73.689 56.3815" stroke="#263238" stroke-width="0.5" stroke-linecap="round" stroke-linejoin="round"/>
<path d="M75.08 57.6832C75.08 57.9707 75.2277 58.2038 75.4064 58.2038C75.5851 58.2038 75.7367 57.9707 75.7367 57.6832C75.7367 57.3957 75.589 57.1625 75.4064 57.1625C75.2238 57.1625 75.08 57.3957 75.08 57.6832Z" fill="#263238"/>
<path d="M82.0507 51.105C79.6976 51.8566 77.1689 51.8566 74.8159 51.105C74.8159 51.105 73.5453 51.0312 73.048 51.6684C72.5506 52.3056 73.048 54.2717 73.1801 55.0721C73.3122 55.8725 72.0805 56.4282 72.2475 58.4486L71.7696 59.148C71.7696 59.148 70.4447 55.892 70.7788 53.0944C71.113 50.2968 72.8809 49.2089 72.8809 49.2089C72.8809 49.2089 73.6852 46.7882 78.41 46.8077C83.5038 46.8271 84.0167 49.5819 84.0167 49.5819C84.0167 49.5819 87.467 51.886 84.9143 59.385L84.3625 58.4525C84.4941 57.4578 84.2653 56.4489 83.7175 55.6083C83.2707 54.9594 83.9818 53.0089 83.8147 52.0065C83.6476 51.004 82.0507 51.105 82.0507 51.105Z" fill="#263238"/>
<path d="M78.8839 57.1625C78.8839 57.1625 78.9111 59.4472 79.5095 60.1893C79.8165 60.5779 79.2181 61.3938 78.2933 61.5415" stroke="#263238" stroke-width="0.5" stroke-linecap="round" stroke-linejoin="round"/>
<path d="M76.269 62.8664C76.3338 63.1019 76.4443 63.3223 76.5943 63.5149C76.7444 63.7076 76.9309 63.8688 77.1433 63.9893C77.7844 64.2652 79.7349 64.1487 80.104 63.9194C80.4732 63.6902 80.6558 62.9403 80.6558 62.9403" fill="white"/>
<path d="M76.269 62.8664C76.3338 63.1019 76.4443 63.3223 76.5943 63.5149C76.7444 63.7076 76.9309 63.8688 77.1433 63.9893C77.7844 64.2652 79.7349 64.1487 80.104 63.9194C80.4732 63.6902 80.6558 62.9403 80.6558 62.9403" stroke="#263238" stroke-width="0.5" stroke-linecap="round" stroke-linejoin="round"/>
<path d="M76.063 62.8198C77.6613 63.1623 79.3139 63.1623 80.9122 62.8198" stroke="#263238" stroke-width="0.5" stroke-linecap="round" stroke-linejoin="round"/>
<path d="M82.9599 51.2022C82.9599 51.2022 81.9108 52.7564 78.4605 53.0944C78.7237 52.8497 78.9317 52.5517 79.0705 52.2202C78.5486 52.6024 77.9558 52.8765 77.3266 53.0267C76.6975 53.1768 76.0447 53.1998 75.4065 53.0944C74.7498 53.0055 74.0813 53.0904 73.4676 53.3406C72.854 53.5908 72.3168 53.9976 71.9095 54.5204L71.3267 57.1625C71.3267 57.1625 69.2635 54.8312 70.7322 51.0856L70.2038 51.5247C70.2038 51.5247 70.7905 46.5163 76.8091 46.3336L76.0787 45.8946C76.0787 45.8946 82.074 44.6163 84.4208 48.5639C84.4208 48.5639 86.5073 48.9525 87.0202 52.5621L86.4335 52.1736C86.4335 52.1736 87.3621 55.1693 85.4349 57.6754C85.4194 57.6832 82.9599 53.7161 82.9599 51.2022Z" fill="#263238"/>
<path opacity="0.5" d="M100.996 34.1293H55.2018C54.8927 34.1293 54.5962 34.0065 54.3776 33.7879C54.159 33.5693 54.0362 33.2728 54.0362 32.9636V32.9636C54.0362 32.6545 54.159 32.358 54.3776 32.1394C54.5962 31.9208 54.8927 31.798 55.2018 31.798H100.996C101.305 31.798 101.602 31.9208 101.821 32.1394C102.039 32.358 102.162 32.6545 102.162 32.9636C102.162 33.2728 102.039 33.5693 101.821 33.7879C101.602 34.0065 101.305 34.1293 100.996 34.1293Z" fill="#263238"/>
<g opacity="0.4">
<path opacity="0.4" d="M97.7287 85.8608H58.4657C58.4052 85.8608 58.3452 85.8488 58.2894 85.8255C58.2335 85.8023 58.1828 85.7681 58.1401 85.7251C58.0975 85.6822 58.0638 85.6312 58.041 85.5751C58.0182 85.519 58.0067 85.459 58.0072 85.3984V85.3984C58.0072 85.2768 58.0555 85.1602 58.1415 85.0742C58.2275 84.9883 58.3441 84.9399 58.4657 84.9399H97.7287C97.7892 84.9394 97.8492 84.9509 97.9053 84.9737C97.9614 84.9965 98.0124 85.0302 98.0554 85.0729C98.0984 85.1155 98.1325 85.1662 98.1558 85.2221C98.1791 85.278 98.1911 85.3379 98.1911 85.3984V85.3984C98.1911 85.5211 98.1423 85.6387 98.0556 85.7254C97.9689 85.8121 97.8513 85.8608 97.7287 85.8608V85.8608Z" fill="black"/>
<path opacity="0.4" d="M93.8431 88.3242H62.3511C62.2906 88.3242 62.2307 88.3122 62.1748 88.2889C62.1189 88.2657 62.0682 88.2315 62.0256 88.1886C61.9829 88.1456 61.9492 88.0946 61.9264 88.0385C61.9036 87.9824 61.8921 87.9224 61.8927 87.8618V87.8618C61.8927 87.7402 61.941 87.6236 62.0269 87.5376C62.1129 87.4517 62.2295 87.4034 62.3511 87.4034H93.8431C93.9037 87.4028 93.9637 87.4143 94.0198 87.4371C94.0758 87.4599 94.1268 87.4936 94.1698 87.5363C94.2128 87.5789 94.2469 87.6296 94.2702 87.6855C94.2935 87.7414 94.3055 87.8013 94.3055 87.8618V87.8618C94.3055 87.9845 94.2568 88.1021 94.1701 88.1888C94.0834 88.2755 93.9657 88.3242 93.8431 88.3242V88.3242Z" fill="black"/>
</g>
<path d="M98.8321 71.2747H92.285C91.255 71.2747 90.42 72.1097 90.42 73.1397V79.6868C90.42 80.7168 91.255 81.5518 92.285 81.5518H98.8321C99.8621 81.5518 100.697 80.7168 100.697 79.6868V73.1397C100.697 72.1097 99.8621 71.2747 98.8321 71.2747Z" fill="#263238" stroke="white" stroke-linecap="round" stroke-linejoin="round"/>
<path d="M98.1172 75.8324H96.1433V73.8585H94.9777V75.8324H93.0038V76.998H94.9777V78.9679H96.1433V76.998H98.1172V75.8324Z" fill="white"/>
<path opacity="0.3" d="M121.764 25.0916C121.764 25.4666 121.653 25.8332 121.445 26.1451C121.236 26.4569 120.94 26.6999 120.594 26.8434C120.247 26.9869 119.866 27.0245 119.498 26.9513C119.13 26.8782 118.793 26.6976 118.527 26.4324C118.262 26.1672 118.082 25.8294 118.008 25.4615C117.935 25.0937 117.973 24.7125 118.116 24.366C118.26 24.0195 118.503 23.7234 118.815 23.5151C119.127 23.3067 119.493 23.1955 119.868 23.1955C120.371 23.1955 120.853 23.3953 121.209 23.7509C121.565 24.1065 121.764 24.5887 121.764 25.0916Z" fill="black"/>
<path opacity="0.3" d="M116.325 25.0916C116.325 25.4666 116.213 25.8332 116.005 26.1451C115.797 26.4569 115.501 26.6999 115.154 26.8434C114.808 26.9869 114.426 27.0245 114.059 26.9513C113.691 26.8782 113.353 26.6976 113.088 26.4324C112.823 26.1672 112.642 25.8294 112.569 25.4615C112.496 25.0937 112.533 24.7125 112.677 24.366C112.82 24.0195 113.063 23.7234 113.375 23.5151C113.687 23.3067 114.054 23.1955 114.429 23.1955C114.931 23.1955 115.414 23.3953 115.769 23.7509C116.125 24.1065 116.325 24.5887 116.325 25.0916Z" fill="black"/>
<path d="M121.659 20.7787H34.5349C33.0435 20.7787 31.8345 21.9877 31.8345 23.4791V108.3C31.8345 109.791 33.0435 111 34.5349 111H121.659C123.151 111 124.36 109.791 124.36 108.3V23.4791C124.36 21.9877 123.151 20.7787 121.659 20.7787Z" stroke="#263238" stroke-linecap="round" stroke-linejoin="round"/>
</g>
<defs>
<clipPath id="clip0_256_58773">
<rect width="146" height="146" fill="white"/>
</clipPath>
</defs>
</svg>
